<?xml version="1.0" encoding="utf-8"?>
<!-- Generator: Adobe Illustrator 27.5.0, SVG Export Plug-In . SVG Version: 6.00 Build 0)  -->
<svg version="1.1" xmlns="http://www.w3.org/2000/svg" xmlns:xlink="http://www.w3.org/1999/xlink" x="0px" y="0px"
	 viewBox="0 0 500 500" style="enable-background:new 0 0 500 500;" xml:space="preserve">
<g id="BACKGROUND">
</g>
<g id="OBJECTS">
	<ellipse style="opacity:0.21;fill:#949599;" cx="246.217" cy="459.593" rx="130.613" ry="19.415"/>
	<g>
		<circle style="fill:#FDE36A;" cx="268.839" cy="156.028" r="135.743"/>
		<g>
			<g>
				<path style="fill:#FFC7A1;" d="M205.098,458.031c0,0,1.456,4.815,5.548,3.205c0,0,1.159,4.33,5.801,2.683
					c0,0-0.576,4.126,4.397,4.815c0.187,0.026,0.368,0.041,0.543,0.044c4.527,0.144,5.709-5.993,7.093-7.772
					c1.436-1.84,10.545-8.142,14.05-19.91c0,0-16.196-5.829-25.485-12.866c0,0-3.477,3.176-5.58,7.964
					c-0.324,0.722-0.605,1.472-0.844,2.25c-1.837,6.01-5.174,6.076-7.198,10.207C201.399,452.791,202.534,457.819,205.098,458.031z"
					/>
				<path style="opacity:0.38;fill:#A9513B;" d="M242.529,441.092c-3.504,11.771-12.608,18.072-14.043,19.914
					c-0.695,0.894-1.351,2.909-2.402,4.658c0.351-5.381,2.644-11.395-0.886-15.351c-3.987-4.479-10.868-5.22-16.79-7.501
					c0.832-1.047,1.598-2.379,2.206-4.37c1.841-6.014,6.431-10.221,6.431-10.221C226.338,435.265,242.529,441.092,242.529,441.092z"
					/>
				<path style="fill:none;stroke:#200808;stroke-width:3;stroke-linecap:round;stroke-linejoin:round;stroke-miterlimit:10;" d="
					M242.529,441.092c-3.504,11.771-12.608,18.072-14.043,19.914c-0.695,0.894-1.351,2.909-2.402,4.658
					c-1.112,1.854-2.672,3.417-5.232,3.069c-4.979-0.687-4.398-4.814-4.398-4.814c-4.654,1.643-5.808-2.693-5.808-2.693
					c-4.095,1.614-5.55-3.187-5.55-3.187c-2.569-0.216-3.693-5.247-1.677-9.389c1.353-2.769,3.308-3.713,4.989-5.839
					c0.832-1.047,1.598-2.379,2.206-4.37c1.841-6.014,6.431-10.221,6.431-10.221C226.338,435.265,242.529,441.092,242.529,441.092z"
					/>
				<g>
					<g>
						<path style="fill:none;stroke:#200808;stroke-width:3;stroke-linecap:round;stroke-linejoin:round;stroke-miterlimit:10;" d="
							M216.452,463.914c0.179-3.786,3.922-4.193,5.784-8.643"/>
						<path style="fill:none;stroke:#200808;stroke-width:3;stroke-linecap:round;stroke-linejoin:round;stroke-miterlimit:10;" d="
							M210.643,461.232c-0.381-3.187,0.578-4.699,3.139-7.599"/>
						<path style="fill:none;stroke:#200808;stroke-width:3;stroke-linecap:round;stroke-linejoin:round;stroke-miterlimit:10;" d="
							M205.101,458.034c0.074-2.958,0.978-5.33,3.702-6.783"/>
					</g>
				</g>
			</g>
			<g>
				<path style="fill:#FFC7A1;" d="M297.499,469.455c0,0-0.698,1.427-1.978,2.282c-0.995,0.669-2.342,0.989-4.004,0.01
					c0,0-1.829,4.096-6.152,1.734c0,0-0.085,4.173-5.103,4.072c-0.181-0.004-0.363-0.018-0.536-0.043
					c-4.497-0.569-4.704-6.815-5.79-8.787c-0.92-1.676-6.412-7.066-9.28-15.608c-0.651-1.93-1.166-4.023-1.463-6.266
					c0,0,16.914-3.211,27.193-8.701c0,0,2.933,3.678,4.26,8.741c0.198,0.766,0.366,1.544,0.478,2.357
					c0.867,6.218,4.152,6.813,5.501,11.212C301.975,464.866,300.066,469.651,297.499,469.455z"/>
				<path style="opacity:0.38;fill:#A9513B;" d="M297.499,469.455c0,0-0.698,1.427-1.978,2.282c-0.102-0.252-0.197-0.525-0.28-0.788
					c-1.703-5.332-1.174-12.345-6.063-15.098c-6.982-3.945-16.703,0.131-24.523-2.737c-0.651-1.93-1.166-4.023-1.463-6.266
					c0,0,16.914-3.211,27.193-8.701c0,0,2.933,3.678,4.26,8.741c0.198,0.766,0.366,1.544,0.478,2.357
					c0.867,6.218,4.152,6.813,5.501,11.212C301.975,464.866,300.066,469.651,297.499,469.455z"/>
				<path style="fill:none;stroke:#200808;stroke-width:3;stroke-linecap:round;stroke-linejoin:round;stroke-miterlimit:10;" d="
					M290.386,438.142c0,0,3.872,4.874,4.736,11.1c0.864,6.226,4.156,6.81,5.504,11.213c1.348,4.403-0.563,9.194-3.132,9.002
					c0,0-2.192,4.522-5.976,2.286c0,0-1.825,4.093-6.158,1.737c0,0-0.078,4.173-5.098,4.064c-5.021-0.109-5.197-6.775-6.326-8.823
					c-1.129-2.047-9.13-9.701-10.74-21.88C263.196,446.842,280.101,443.632,290.386,438.142z"/>
				<g>
					<g>
						<path style="fill:none;stroke:#200808;stroke-width:3;stroke-linecap:round;stroke-linejoin:round;stroke-miterlimit:10;" d="
							M285.36,473.48c0.418-3.767-3.214-4.757-4.353-9.445"/>
						<path style="fill:none;stroke:#200808;stroke-width:3;stroke-linecap:round;stroke-linejoin:round;stroke-miterlimit:10;" d="
							M291.518,471.744c0.878-3.088,0.168-4.732-1.905-7.998"/>
						<path style="fill:none;stroke:#200808;stroke-width:3;stroke-linecap:round;stroke-linejoin:round;stroke-miterlimit:10;" d="
							M297.494,469.457c0.392-2.932-0.128-5.417-2.59-7.28"/>
					</g>
				</g>
			</g>
		</g>
		<g>
			<path style="fill:#6B321F;" d="M370.65,256.58c2.67-14.33-6.33-28.33-6.33-28.33c-1.34,32.91-25.44,52.52-55.38,61.61
				c-37.07,11.25-83.09,6.39-105.96-9.28c-41.33-28.33-32.33-61-32.33-61c-6.33,3-9,14-9,14c-4-24,5.33-33.67,9.67-66.08
				c4.33-32.42-9.34-76.59,33.94-101.25c0.92-0.53,1.85-1.03,2.77-1.52c0,0,0.02-0.01,0.05-0.02c42.24-22.51,81.94-8.81,83.71-9.13
				c10.86-2.01-10.32-15.33-10.32-15.33c13.49,0.66,17.18,12,17.18,12c7.67-14.34,17.67-14.67,17.67-14.67
				c-11.67,12.33-9.24,20.67-9.24,20.67c49.77,12,57.57,49,58.57,91s7.67,31,14,62.21C385.98,242.67,370.65,256.58,370.65,256.58z"
				/>
			<path style="opacity:0.3;fill:#3F1A10;" d="M370.65,256.58c2.67-14.33-6.33-28.33-6.33-28.33
				c-1.34,32.91-25.44,52.52-55.38,61.61c44.93-29.95,48-84.98,48-84.98c5.27,3.28,9.3,10.73,9.55,11.19
				c-7.49-23.41-11.49-53.04-15.17-70.33c-3.69-17.28-4.32-57.24-51.2-77.24c-45.98-19.61-90.34-4.38-92.04-3.79
				c42.24-22.51,81.94-8.81,83.71-9.13c10.86-2.01-10.32-15.33-10.32-15.33c13.49,0.66,17.18,12,17.18,12
				c7.67-14.34,17.67-14.67,17.67-14.67c-11.67,12.33-9.24,20.67-9.24,20.67c49.77,12,57.57,49,58.57,91s7.67,31,14,62.21
				C385.98,242.67,370.65,256.58,370.65,256.58z"/>
			<path style="fill:none;stroke:#200808;stroke-width:3;stroke-linecap:round;stroke-linejoin:round;stroke-miterlimit:10;" d="
				M370.649,256.58c0,0,15.333-13.915,9-45.124c-6.333-31.209-13-20.209-14-62.209s-8.802-79-58.568-91
				c0,0-2.432-8.333,9.235-20.667c0,0-10,0.333-17.667,14.667c0,0-3.688-11.333-17.177-12c0,0,21.176,13.328,10.316,15.333
				c-1.806,0.333-43.251-14-86.529,10.667c-43.277,24.667-29.611,68.833-33.944,101.25s-13.667,42.083-9.667,66.083
				c0,0,2.667-11,9-14c0,0-9,32.667,32.333,61c41.333,28.333,158.333,21.333,161.333-52.333
				C364.315,228.247,373.315,242.247,370.649,256.58z"/>
		</g>
		<g>
			<g>
				<path style="fill:#FFFDE1;" d="M354.65,416.91c-4.67,5.67-18,9.67-18,9.67s1.67,3,1,4.33c-0.32,0.65-6.3,3.62-14.95,6.33
					c-6.89,2.16-15.47,4.16-24.24,4.7c-2.79,0.17-5.6,0.19-8.38,0.02c-0.25-0.02-0.51-0.03-0.76-0.05c0,0,1.33,3.67,0.66,5.67
					c-0.66,2-28.38,7.55-52.66,1.67c-31.67-7.67-34.34-17.34-33.34-21.67c0,0-13.38-6.81-15-9.67c-4.33-7.66,7-66.27,18.34-117.33
					c3.34-15.05,7.69-26.15,13.15-34.34c11.46-17.16,27.84-21.53,50.18-22.66c20.11-1.02,54.28,5.74,61.81,22.7
					c7.52,16.97-0.14,42.63,6.19,57.97C344.98,339.58,359.32,411.25,354.65,416.91z"/>
				<path style="opacity:0.38;fill:#949599;" d="M298.46,441.94c-2.79,0.17-5.6,0.19-8.38,0.02l-12.1-82.87l7.03-5.87L298.46,441.94
					z"/>
				<path style="opacity:0.38;fill:#949599;" d="M354.65,416.91c-4.67,5.67-18,9.67-18,9.67s1.67,3,1,4.33
					c-0.32,0.65-6.3,3.62-14.95,6.33c-2.82-12.03-5.45-24.12-7.33-36.33c-6.19-40.21-4.57-82.44-20.59-119.85
					c-1-2.31-2.1-4.67-3.99-6.34c-3.59-3.19-9.12-3.06-13.65-1.48c-4.54,1.58-8.56,4.37-13.04,6.12c-12.13,4.72-26.38,1-36.73-6.9
					c-2.44-1.86-4.75-3.95-6.9-6.22c11.46-17.16,27.84-21.53,50.18-22.66c20.11-1.02,54.28,5.74,61.81,22.7
					c7.52,16.97-0.14,42.63,6.19,57.97C344.98,339.58,359.32,411.25,354.65,416.91z"/>
				<path style="fill:none;stroke:#200808;stroke-width:3;stroke-linecap:round;stroke-linejoin:round;stroke-miterlimit:10;" d="
					M270.652,243.58c20.107-1.016,54.276,5.742,61.803,22.704c7.527,16.962-0.14,42.629,6.194,57.962
					c6.333,15.333,20.667,87,16,92.667c-4.667,5.667-18,9.667-18,9.667s1.667,3,1,4.333c-0.667,1.333-25.667,12.667-48.333,11
					c0,0,1.333,3.667,0.667,5.667c-0.667,2-28.38,7.547-52.667,1.667c-31.667-7.667-34.333-17.333-33.333-21.667
					c0,0-13.385-6.809-15-9.667c-4.333-7.667,7-66.277,18.333-117.333C217.659,253.981,237.655,245.247,270.652,243.58z"/>
				<g>
					<g>
						<path style="fill:none;stroke:#200808;stroke-width:3;stroke-linecap:round;stroke-linejoin:round;stroke-miterlimit:10;" d="
							M203.982,427.58c-0.333-13.333,8.667-63,8.667-63"/>
						<path style="fill:none;stroke:#200808;stroke-width:3;stroke-linecap:round;stroke-linejoin:round;stroke-miterlimit:10;" d="
							M193.499,421.63c-2.18-1.499,4.15-37.717,7.483-55.384"/>
						<path style="fill:none;stroke:#200808;stroke-width:3;stroke-linecap:round;stroke-linejoin:round;stroke-miterlimit:10;" d="
							M289.315,441.913c-1-13.667-9.333-69.888-11.333-86.944"/>
						<path style="fill:none;stroke:#200808;stroke-width:3;stroke-linecap:round;stroke-linejoin:round;stroke-miterlimit:10;" d="
							M336.649,426.58c-3.667-12-13.333-60.333-21.333-77"/>
					</g>
				</g>
			</g>
			<g>
				<path style="fill:#FFC7A1;" d="M241.265,256.58c0,0,2.513,6.667,10.615,8l3.599,9.667l3.792-8.833
					c0,0,18.786,0.561,24.397-10.167L241.265,256.58z"/>
				<path style="fill:none;stroke:#200808;stroke-width:3;stroke-linecap:round;stroke-linejoin:round;stroke-miterlimit:10;" d="
					M241.265,256.58c0,0,2.513,6.667,10.615,8l3.599,9.667l3.792-8.833c0,0,18.786,0.561,24.397-10.167L241.265,256.58z"/>
			</g>
			<g>
				<path style="fill:#EF2A3C;" d="M348.65,404.25c-1.44,0.32-3.11,0.51-5,0.56c-13.93,0.35-39.77-7.25-70-31.9
					c-0.76-0.62-1.51-1.24-2.25-1.86c-32.6-27.07-44.05-47.5-53.08-62.44c-9.24-15.27-9.34-25.7-5.67-34.7
					c3.67-9,8.6-24.26,19.17-19.68c2.42,1.04,37.83,37.02,50.16,50.68c12.34,13.67,34.11,33.09,47.74,34
					c13.62,0.92,8.64-8.45,10.45-10.39c1.81-1.94,8.81,5.39,9.81,15.39s-1,14.67,1.67,20.67c2.67,6,3.17,16.33,3.92,22
					C356.32,392.25,360.65,401.58,348.65,404.25z"/>
				<path style="opacity:0.37;fill:#560D18;" d="M348.65,404.25c-1.44,0.32-3.11,0.51-5,0.56c-0.16-1.07-0.39-2.12-0.73-3.16
					c-2.68-8.33-11.39-14.05-12.75-22.7c-0.6-3.79,0.33-7.71-0.36-11.49c-1.08-5.96-5.9-10.44-10.44-14.45
					c-2.05-1.81-4.45-3.74-7.17-3.43c-3.94,0.45-5.77,5.11-9.03,7.38c-6.25,4.35-15.58-1.18-22.26,2.49
					c-4.38,2.4-6.47,7.54-9.51,11.6c-32.6-27.07-44.05-47.5-53.08-62.44c-9.24-15.27-9.34-25.7-5.67-34.7
					c3.67-9,8.6-24.26,19.17-19.68c2.42,1.04,37.83,37.02,50.16,50.68c12.34,13.67,34.11,33.09,47.74,34
					c13.62,0.92,8.64-8.45,10.45-10.39c1.81-1.94,8.81,5.39,9.81,15.39s-1,14.67,1.67,20.67c2.67,6,3.17,16.33,3.92,22
					C356.32,392.25,360.65,401.58,348.65,404.25z"/>
				<path style="fill:none;stroke:#200808;stroke-width:3;stroke-linecap:round;stroke-linejoin:round;stroke-miterlimit:10;" d="
					M231.819,254.227c2.417,1.048,37.83,37.019,50.163,50.686c12.333,13.667,34.106,33.088,47.734,34
					c13.628,0.912,8.644-8.456,10.455-10.395c1.811-1.939,8.811,5.395,9.811,15.395s-1,14.667,1.667,20.667
					c2.667,6,3.169,16.333,3.918,22c0.749,5.667,5.082,15-6.918,17.667c-12,2.667-40.667-3.333-75-31.333
					c-34.333-28-46.102-49.028-55.333-64.301c-9.231-15.273-9.333-25.699-5.667-34.699
					C216.315,264.913,221.248,249.646,231.819,254.227z"/>
				<g>
					<g>
						<path style="fill:none;stroke:#200808;stroke-width:3;stroke-linecap:round;stroke-linejoin:round;stroke-miterlimit:10;" d="
							M345.094,358.913c0,0-17.282,18.915-82.112-50.301"/>
						<path style="fill:none;stroke:#200808;stroke-width:3;stroke-linecap:round;stroke-linejoin:round;stroke-miterlimit:10;" d="
							M350.982,388.08c-1,1.167-36.438,23.425-101.733-57.167"/>
					</g>
				</g>
				<g>
					<g>
						<g>
							<g>
								<path style="fill:#FF7676;" d="M278.565,368.945c4.967,4.989,8.627,9.387,8.175,9.823c-0.452,0.435-4.833-3.244-9.785-8.22
									c-4.952-4.975-8.613-9.373-8.175-9.823C269.217,360.276,273.598,363.955,278.565,368.945z"/>
							</g>
						</g>
					</g>
					<g>
						<g>
							<g>
								<path style="fill:#FF7676;" d="M299.279,383.902c2.5,1.892,3.728,4.194,3.247,4.576c-0.494,0.408-2.356-1.06-4.622-2.767
									c-2.251-1.725-4.164-3.127-3.903-3.712C294.239,381.433,296.787,382,299.279,383.902z"/>
							</g>
						</g>
					</g>
					<g>
						<g>
							<g>
								<path style="fill:#FF7676;" d="M328.506,396.56c3.648,1.295,6.592,2.51,6.446,3.129c-0.139,0.603-3.424,0.353-7.203-0.987
									c-3.783-1.331-6.496-3.199-6.225-3.756C321.799,394.373,324.854,395.276,328.506,396.56z"/>
							</g>
						</g>
					</g>
					<g>
						<g>
							<g>
								<path style="fill:#FF7676;" d="M312.041,375.412c8.334,4.756,15.587,7.718,15.366,8.344
									c-0.172,0.565-7.937-1.492-16.487-6.367c-8.572-4.836-14.324-10.443-13.927-10.881
									C297.417,365.997,303.682,370.701,312.041,375.412z"/>
							</g>
						</g>
					</g>
					<g>
						<g>
							<g>
								<path style="fill:#FF7676;" d="M325.67,350.4c3.88,2.035,7.417,2.926,7.333,3.577c-0.043,0.299-1.022,0.467-2.578,0.289
									c-1.551-0.175-3.667-0.749-5.798-1.846c-2.128-1.102-3.822-2.495-4.862-3.658c-1.047-1.165-1.476-2.061-1.257-2.269
									C318.99,346.048,321.764,348.414,325.67,350.4z"/>
							</g>
						</g>
					</g>
					<g>
						<g>
							<path style="fill:none;stroke:#FFCBCB;stroke-miterlimit:10;" d="M336,382.5"/>
						</g>
					</g>
					<g>
						<g>
							<g>
								<path style="fill:#FF7676;" d="M339.1,382.457c3.376,0.166,6.185-0.175,6.372,0.442c0.082,0.295-0.551,0.782-1.719,1.195
									c-1.161,0.417-2.867,0.714-4.754,0.633c-2.153-0.088-4.015-0.679-5.116-1.266l-2.36-1.259l2.374-0.115
									c0.92-0.044,1.504,0.056,1.573,0.317c0.07,0.261-0.385,0.639-1.205,1.061l0.015-1.373
									C335.455,382.16,337.17,382.378,339.1,382.457z"/>
							</g>
						</g>
					</g>
				</g>
			</g>
		</g>
		<g>
			<g>
				<path style="fill:#FFFDE1;" d="M329.98,325.91c-8,7.67-13.66,5.34-20.33,15c-6.67,9.67-16,8.34-22.33,4.67
					c-6.34-3.67-7,1.67-12.34,6.33c-1.08,0.94-2.34,1.79-3.7,2.35c-5.36,2.23-12.17-0.04-14.6-18.89
					c-3.05-23.63-0.03-45.79,6.3-47.12c6.34-1.34,7.67,5,12,2c4.34-3,14,0.33,20.67-3c5.74-2.87,3.76-9.02,8.34-15.58
					c1.48-2.13,3.65-4.3,6.99-6.42c13.67-8.67,28.97,2.66,33.15,19C348.32,300.58,337.98,318.25,329.98,325.91z"/>
				<path style="opacity:0.38;fill:#949599;" d="M329.98,325.91c-8,7.67-13.66,5.34-20.33,15c-6.67,9.67-16,8.34-22.33,4.67
					c-6.34-3.67-7,1.67-12.34,6.33c-1.08,0.94-2.34,1.79-3.7,2.35c1.29-3.41,1.74-7.11,3.09-10.51c1.51-3.8,4.76-7.46,8.85-7.4
					c4.9,0.06,9.02,5.38,13.8,4.25c5.55-1.32,5.71-9.34,9.63-13.49c1.81-1.91,4.37-2.9,6.71-4.11c12.75-6.55,20.46-21.7,18.26-35.86
					c-0.69-4.4-2.29-8.75-5.18-12.14c-6.85-8.03-14.78-6.61-22.45-3.33c1.48-2.13,3.65-4.3,6.99-6.42
					c13.67-8.67,28.97,2.66,33.15,19C348.32,300.58,337.98,318.25,329.98,325.91z"/>
				<path style="fill:none;stroke:#200808;stroke-width:3;stroke-linecap:round;stroke-linejoin:round;stroke-miterlimit:10;" d="
					M295.649,287.246c7.601-3.801,1.667-13.333,15.333-22c13.667-8.667,28.965,2.667,33.149,19c4.184,16.333-6.149,34-14.149,41.667
					c-8,7.667-13.667,5.333-20.333,15c-6.667,9.667-16,8.333-22.333,4.667c-6.333-3.667-7,1.667-12.333,6.333
					c-5.333,4.667-15.256,7.087-18.306-16.541c-3.05-23.628-0.028-45.792,6.306-47.126c6.333-1.333,7.667,5,12,2
					C279.315,287.246,288.982,290.58,295.649,287.246z"/>
				<path style="opacity:0.38;fill:#949599;" d="M262.315,293.246c5.134-1.756,12.286,56.236,5.667,58.333
					S254.001,296.089,262.315,293.246z"/>
				<path style="fill:none;stroke:#200808;stroke-width:3;stroke-linecap:round;stroke-linejoin:round;stroke-miterlimit:10;" d="
					M270.5,343.53c-0.3,4.52-1.08,7.6-2.52,8.05c-2.41,0.77-4.93-6.41-6.74-15.97c-2.08-10.94-3.24-25.02-2.29-33.9
					c0.49-4.63,1.56-7.84,3.37-8.46c1.35-0.46,2.84,3.22,4.19,8.94C269.16,313.47,271.23,332.67,270.5,343.53z"/>
			</g>
			<g>
				<path style="fill:#FFC7A1;" d="M270.5,343.53c-5.17,0.12-5.87-8.59-5.87-8.59c-1.22,0.44-2.35,0.65-3.39,0.67
					c-6.76,0.09-9.47-8.08-9.84-11.53c-2.75-25.5,2-25.5,5.32-23.28c0.65,0.43,1.41,0.72,2.23,0.91c2.56,0.62,5.66,0.29,7.56,0.48
					C269.16,313.47,271.23,332.67,270.5,343.53z"/>
				<path style="opacity:0.38;fill:#A9513B;" d="M270.5,343.53c-5.17,0.12-5.87-8.59-5.87-8.59c-1.22,0.44-2.35,0.65-3.39,0.67
					c-6.76,0.09-9.47-8.08-9.84-11.53c-2.75-25.5,2-25.5,5.32-23.28c0.65,0.43,1.41,0.72,2.23,0.91c2.56,0.62,5.66,0.29,7.56,0.48
					C269.16,313.47,271.23,332.67,270.5,343.53z"/>
				<path style="fill:none;stroke:#200808;stroke-width:3;stroke-linecap:round;stroke-linejoin:round;stroke-miterlimit:10;" d="
					M270.5,343.53c-5.17,0.12-5.87-8.59-5.87-8.59c-1.22,0.44-2.35,0.65-3.39,0.67c-6.76,0.09-9.47-8.08-9.84-11.53
					c-2.75-25.5,2-25.5,5.32-23.28c0.65,0.43,1.41,0.72,2.23,0.91c2.56,0.62,5.66,0.29,7.56,0.48
					C269.16,313.47,271.23,332.67,270.5,343.53z"/>
			</g>
			<g>
				<path style="fill:#FFC7A1;" d="M248.649,289.33c2.955-5.524,8.886-6.611,10.622-3.25c1.737,3.361-4.867,9.28-2.763,16.015
					c2.105,6.735-5.403,14.001-7.259,9.985C247.392,308.064,242.03,301.705,248.649,289.33z"/>
				<path style="fill:none;stroke:#200808;stroke-width:3;stroke-linecap:round;stroke-linejoin:round;stroke-miterlimit:10;" d="
					M248.649,289.33c2.955-5.524,8.886-6.611,10.622-3.25c1.737,3.361-4.867,9.28-2.763,16.015
					c2.105,6.735-5.403,14.001-7.259,9.985C247.392,308.064,242.03,301.705,248.649,289.33z"/>
			</g>
		</g>
		<g>
			<path style="fill:#FFC7A1;" d="M103.643,305.838c0.08-5.311-8.095-10.604-6.85-15.793c1.245-5.189,6.933-3.572,11.416,1.245
				C112.693,296.108,103.643,305.838,103.643,305.838z"/>
			<path style="fill:none;stroke:#200808;stroke-width:3;stroke-linecap:round;stroke-linejoin:round;stroke-miterlimit:10;" d="
				M103.643,305.838c0.08-5.311-8.095-10.604-6.85-15.793c1.245-5.189,6.933-3.572,11.416,1.245
				C112.693,296.108,103.643,305.838,103.643,305.838z"/>
		</g>
		<g>
			<g>
				<polygon style="fill:#FFFFFF;" points="260.64,366.08 113.65,380.58 110.14,340.08 105.89,290.91 103.15,259.27 202.94,248.22 
					244.83,243.58 248.44,271.56 252.75,304.92 256.21,331.76 				"/>
				<path style="opacity:0.38;fill:#949599;" d="M256.21,331.76c-1.81,0.39-3.71,0.49-5.53,0.38c-2.89-0.18-6.02-0.93-7.74-3.26
					c-1.55-2.1-1.48-5.25,0.17-7.28c0.44-0.54,1.03-1.18,0.8-1.84c-1.19-3.56-3.39-3.64-1.59-7.87c1.18-2.77,4.72-5.99,7.63-6.71
					c0.92-0.23,1.87-0.31,2.8-0.26L256.21,331.76z"/>
				<path style="opacity:0.38;fill:#949599;" d="M123.06,325.43c-1.45,1.16-3.2,1.9-4.58,3.14c-3.57,3.2-4.16,9.15-8.34,11.51
					l-4.25-49.17c1.05-0.13,2.11-0.12,3.17,0.04c4.31,0.66,14.72,5.71,12.61,11.07c-0.57,1.42-1.37,2.92-0.97,4.4
					c0.26,0.99,1.02,1.76,1.43,2.69c1.06,2.39-0.3,5.34,0.76,7.73c0.61,1.36,1.95,2.36,2.32,3.8
					C125.69,322.44,124.51,324.27,123.06,325.43z"/>
				<path style="opacity:0.38;fill:#949599;" d="M248.44,271.56c-6.76-1.02-13.38-2.94-19.61-5.78c-9.56-4.35-18-10.59-25.89-17.56
					l41.89-4.64L248.44,271.56z"/>
				
					<polygon style="fill:none;stroke:#200808;stroke-width:3;stroke-linecap:round;stroke-linejoin:round;stroke-miterlimit:10;" points="
					103.149,259.27 244.829,243.58 260.64,366.08 113.649,380.58 				"/>
			</g>
			<path style="fill:#EF2A3C;" d="M192.397,303.199c0,0-12.269-2.559-18.961-14.828c-6.692-12.269,6.868-23.051,16.632-9.295
				c0,0,4.343-9.887,12.445-6.43C210.614,276.103,211.729,290.143,192.397,303.199z"/>
		</g>
		<g>
			<path style="fill:#FFC7A1;" d="M250.576,297.08c-3.323,0.836-11.177,3.5-9.177,8.25s17.494,1.235,19.241-1
				C262.387,302.095,261.503,294.33,250.576,297.08z"/>
			<path style="fill:none;stroke:#200808;stroke-width:3;stroke-linecap:round;stroke-linejoin:round;stroke-miterlimit:10;" d="
				M250.576,297.08c-3.323,0.836-11.177,3.5-9.177,8.25s17.494,1.235,19.241-1C262.387,302.095,261.503,294.33,250.576,297.08z"/>
			<path style="fill:#FFC7A1;" d="M250.587,307.054c-3.262,0.821-10.97,3.435-9.007,8.097c1.963,4.662,17.17,1.212,18.885-0.982
				C262.18,311.976,261.312,304.355,250.587,307.054z"/>
			<path style="fill:none;stroke:#200808;stroke-width:3;stroke-linecap:round;stroke-linejoin:round;stroke-miterlimit:10;" d="
				M250.587,307.054c-3.262,0.821-10.97,3.435-9.007,8.097c1.963,4.662,17.17,1.212,18.885-0.982
				C262.18,311.976,261.312,304.355,250.587,307.054z"/>
			<path style="fill:#FFC7A1;" d="M251.248,316.698c-2.983,0.68-10.031,2.847-8.236,6.71c1.795,3.864,15.7,1.005,17.268-0.813
				C261.848,320.777,261.055,314.461,251.248,316.698z"/>
			<path style="fill:none;stroke:#200808;stroke-width:3;stroke-linecap:round;stroke-linejoin:round;stroke-miterlimit:10;" d="
				M251.248,316.698c-2.983,0.68-10.031,2.847-8.236,6.71c1.795,3.864,15.7,1.005,17.268-0.813
				C261.848,320.777,261.055,314.461,251.248,316.698z"/>
		</g>
		<g>
			<path style="fill:#FFC7A1;" d="M101.36,311.303c-3.148-2.063-1.245-10.257,7.265-13.993c8.51-3.736,15.36,0.941,11.782,5.336
				c-2.573,3.161-6.345,2.551-9.375,5.042C108.002,310.178,105.926,314.295,101.36,311.303z"/>
			<path style="fill:none;stroke:#200808;stroke-width:3;stroke-linecap:round;stroke-linejoin:round;stroke-miterlimit:10;" d="
				M101.36,311.303c-3.148-2.063-1.245-10.257,7.265-13.993c8.51-3.736,15.36,0.941,11.782,5.336
				c-2.573,3.161-6.345,2.551-9.375,5.042C108.002,310.178,105.926,314.295,101.36,311.303z"/>
			<path style="fill:#FFC7A1;" d="M102.787,319.962c-3.148-2.063-1.245-10.257,7.265-13.993c8.51-3.736,15.36,0.941,11.782,5.336
				c-2.573,3.161-6.346,2.551-9.375,5.042C109.429,318.837,107.354,322.954,102.787,319.962z"/>
			<path style="fill:none;stroke:#200808;stroke-width:3;stroke-linecap:round;stroke-linejoin:round;stroke-miterlimit:10;" d="
				M102.787,319.962c-3.148-2.063-1.245-10.257,7.265-13.993c8.51-3.736,15.36,0.941,11.782,5.336
				c-2.573,3.161-6.346,2.551-9.375,5.042C109.429,318.837,107.354,322.954,102.787,319.962z"/>
			<path style="fill:#FFC7A1;" d="M105.725,328.137c-2.908-1.906-1.15-9.474,6.71-12.925c7.86-3.451,14.187,0.869,10.883,4.928
				c-2.377,2.92-5.861,2.357-8.659,4.657C111.86,327.098,109.943,330.901,105.725,328.137z"/>
			<path style="fill:none;stroke:#200808;stroke-width:3;stroke-linecap:round;stroke-linejoin:round;stroke-miterlimit:10;" d="
				M105.725,328.137c-2.908-1.906-1.15-9.474,6.71-12.925c7.86-3.451,14.187,0.869,10.883,4.928
				c-2.377,2.92-5.861,2.357-8.659,4.657C111.86,327.098,109.943,330.901,105.725,328.137z"/>
		</g>
		<g>
			<g>
				<path style="fill:#6B321F;" d="M343.34,182.44c0,0.04-0.01,0.09-0.01,0.13c-4.23,51.99-16.61,75.34-85.99,76.68
					c-36.02,0.69-55.18-14.08-65.63-33.63c-9.7-18.11-11.94-40.31-13.2-58.12c-1.24-17.59-0.32-88.59,79.16-93.92
					C337.08,68.25,347.55,130.48,343.34,182.44z"/>
				<path style="opacity:0.3;fill:#3F1A10;" d="M343.34,182.44c0,0.04-0.01,0.09-0.01,0.13c-4.23,51.99-16.61,75.34-85.99,76.68
					c-36.02,0.69-55.18-14.08-65.63-33.63c15.33,18.56,46.76,32.13,95.4,17.88c49.26-14.44,42.61-62.75,42.61-62.75
					S337.93,177.01,343.34,182.44z"/>
				<g>
					<g>
						<g>
							<g>
								<path style="fill:#A65438;" d="M187.772,96.055c2.513-3.087,5.521-4.445,5.732-4.049c0.263,0.417-2.115,2.292-4.414,5.129
									c-2.331,2.811-3.702,5.511-4.163,5.335C184.498,102.342,185.239,99.125,187.772,96.055z"/>
							</g>
						</g>
					</g>
					<g>
						<g>
							<g>
								<path style="fill:#A65438;" d="M211.253,70.755c2.319-0.761,4.305-0.22,4.247,0.234c-0.033,0.483-1.762,0.733-3.72,1.387
									c-1.969,0.623-3.513,1.438-3.824,1.067C207.643,73.11,208.93,71.504,211.253,70.755z"/>
							</g>
						</g>
					</g>
					<g>
						<g>
							<g>
								<path style="fill:#A65438;" d="M211.382,87.986c1.486-0.926,2.966-0.988,3.097-0.544c0.143,0.456-0.92,1.19-2.199,1.992
									c-1.287,0.79-2.417,1.416-2.762,1.085C209.18,90.205,209.893,88.906,211.382,87.986z"/>
							</g>
						</g>
					</g>
					<g>
						<g>
							<g>
								<path style="fill:#A65438;" d="M221.555,109.386c1.505-0.278,2.918-0.609,4.189-0.961c1.261-0.377,2.391-0.748,3.314-1.129
									c1.857-0.737,2.982-1.328,3.13-1.116c0.125,0.17-0.779,1.133-2.604,2.2c-0.906,0.544-2.055,1.058-3.362,1.54
									c-1.314,0.456-2.793,0.853-4.363,1.142c-3.144,0.563-6.012,0.653-8.073,0.619c-2.063-0.042-3.336-0.214-3.346-0.446
									c-0.01-0.238,1.25-0.492,3.278-0.757C215.748,110.207,218.541,109.926,221.555,109.386z"/>
							</g>
						</g>
					</g>
					<g>
						<g>
							<g>
								<path style="fill:#A65438;" d="M235.219,86.684c1.737-0.477,3.232-0.231,3.271,0.232c0.044,0.474-1.246,0.977-2.822,1.412
									c-1.579,0.426-2.945,0.648-3.148,0.217C232.318,88.126,233.481,87.155,235.219,86.684z"/>
							</g>
						</g>
					</g>
					<g>
						<g>
							<g>
								<path style="fill:#A65438;" d="M246.849,65.422c4.511-0.97,8.24-0.194,8.172,0.247c-0.04,0.493-3.602,0.506-7.819,1.421
									c-4.226,0.873-7.487,2.305-7.724,1.87C239.238,68.583,242.332,66.363,246.849,65.422z"/>
							</g>
						</g>
					</g>
					<g>
						<g>
							<g>
								<path style="fill:#A65438;" d="M261.092,98.048c3.386-1.112,6.146-2.077,6.361-1.646c0.211,0.409-2.306,2.107-5.826,3.264
									c-3.516,1.17-6.549,1.307-6.623,0.854C254.92,100.046,257.71,99.175,261.092,98.048z"/>
							</g>
						</g>
					</g>
					<g>
						<g>
							<g>
								<path style="fill:#A65438;" d="M279.165,77.581c2.559-0.763,4.762-0.661,4.817-0.202c0.062,0.475-1.921,1.114-4.332,1.836
									c-2.415,0.71-4.426,1.254-4.633,0.822C274.812,79.622,276.603,78.335,279.165,77.581z"/>
							</g>
						</g>
					</g>
					<g>
						<g>
							<g>
								<path style="fill:#A65438;" d="M304.158,92.426c3.863-2.506,6.58-5.152,6.953-4.826c0.354,0.271-1.924,3.587-6.019,6.251
									c-4.078,2.69-8.028,3.454-8.135,3.022C296.806,96.401,300.318,94.967,304.158,92.426z"/>
							</g>
						</g>
					</g>
					<g>
						<g>
							<g>
								<path style="fill:#A65438;" d="M290.892,61.72c3.414-0.301,6.155,0.339,6.107,0.795c-0.043,0.48-2.717,0.615-5.96,0.903
									c-3.245,0.271-5.903,0.596-6.027,0.13C284.886,63.107,287.478,62.008,290.892,61.72z"/>
							</g>
						</g>
					</g>
					<g>
						<g>
							<g>
								<path style="fill:#A65438;" d="M334.879,118.247c0.503,2.824,0.507,5.439,0.291,7.296c-0.214,1.862-0.591,2.968-0.812,2.94
									c-0.499-0.062-0.164-4.56-1.157-9.936c-0.937-5.385-2.814-9.487-2.367-9.719c0.197-0.103,0.936,0.804,1.783,2.475
									C333.465,112.97,334.37,115.424,334.879,118.247z"/>
							</g>
						</g>
					</g>
					<g>
						<g>
							<g>
								<path style="fill:#A65438;" d="M337.047,146.176c0.166,1.792-0.08,3.281-0.548,3.324c-0.469,0.043-0.983-1.375-1.149-3.167
									c-0.166-1.792,0.08-3.281,0.548-3.324C336.367,142.966,336.881,144.384,337.047,146.176z"/>
							</g>
						</g>
					</g>
					<g>
						<g>
							<g>
								<path style="fill:#A65438;" d="M356.873,129.184c0.105,2.125-0.202,4.046-0.615,5.367c-0.412,1.326-0.882,2.063-1.096,1.997
									c-0.473-0.149,0.233-3.345,0.009-7.278c-0.174-3.935-1.199-7.044-0.743-7.24c0.207-0.088,0.749,0.598,1.292,1.876
									C356.264,125.178,356.763,127.059,356.873,129.184z"/>
							</g>
						</g>
					</g>
					<g>
						<g>
							<g>
								<path style="fill:#A65438;" d="M337.057,82.649c1.531,2.022,2.551,4.1,3.08,5.664c0.533,1.567,0.626,2.599,0.414,2.669
									c-0.476,0.157-1.942-3.515-4.852-7.303c-2.865-3.821-6.008-6.221-5.729-6.637c0.124-0.186,1.093,0.181,2.459,1.117
									C333.794,79.089,335.521,80.631,337.057,82.649z"/>
							</g>
						</g>
					</g>
					<g>
						<g>
							<g>
								<path style="fill:#A65438;" d="M171.611,203.3c-0.634,4.177-0.627,7.653-1.116,7.701c-0.445,0.065-1.236-3.527-0.57-7.95
									c0.642-4.427,2.438-7.636,2.845-7.445C173.225,195.792,172.213,199.117,171.611,203.3z"/>
							</g>
						</g>
					</g>
					<g>
						<g>
							<g>
								<path style="fill:#A65438;" d="M182.597,237.503c1.759,4.524,4.263,7.678,3.887,8.011c-0.165,0.148-1.027-0.46-2.127-1.736
									c-1.1-1.271-2.391-3.247-3.344-5.647c-0.948-2.403-1.36-4.727-1.428-6.406c-0.072-1.684,0.14-2.717,0.362-2.722
									C180.449,228.988,180.782,233.001,182.597,237.503z"/>
							</g>
						</g>
					</g>
					<g>
						<g>
							<g>
								<path style="fill:#A65438;" d="M193.407,235.793c1.503,1.397,2.462,2.809,2.142,3.154c-0.32,0.345-1.799-0.509-3.302-1.906
									c-1.503-1.397-2.462-2.809-2.142-3.154C190.425,233.543,191.903,234.396,193.407,235.793z"/>
							</g>
						</g>
					</g>
					<g>
						<g>
							<g>
								<path style="fill:#A65438;" d="M181.563,121.568c-0.473,3.212-0.592,5.889-1.076,5.933
									c-0.452,0.055-1.113-2.733-0.611-6.174c0.485-3.443,1.903-5.934,2.321-5.754
									C182.649,115.75,182.012,118.352,181.563,121.568z"/>
							</g>
						</g>
					</g>
					<g>
						<g>
							<g>
								<path style="fill:#A65438;" d="M370.27,196.245c1.458,4.99,1.242,9.247,0.795,9.251c-0.493,0.028-1.035-4.011-2.432-8.777
									c-1.363-4.776-3.061-8.48-2.63-8.72C366.383,187.762,368.839,191.247,370.27,196.245z"/>
							</g>
						</g>
					</g>
					<g>
						<g>
							<g>
								<path style="fill:#A65438;" d="M375.727,226.437c0.176,2.523-0.231,4.57-0.697,4.563c-0.475-0.006-0.832-2-1.003-4.446
									c-0.165-2.446-0.085-4.471,0.384-4.542C374.873,221.941,375.556,223.913,375.727,226.437z"/>
							</g>
						</g>
					</g>
					<g>
						<g>
							<g>
								<path style="fill:#A65438;" d="M332.948,246.735c2.829-3.022,5.039-5.591,5.437-5.317c0.381,0.253-1.263,3.349-4.191,6.479
									c-2.916,3.14-5.888,4.999-6.168,4.636C327.726,252.156,330.133,249.77,332.948,246.735z"/>
							</g>
						</g>
					</g>
					<g>
						<g>
							<g>
								<path style="fill:#A65438;" d="M348.905,212.553c-0.112,2.837-0.894,5.041-1.349,4.956
									c-0.471-0.083-0.459-2.318-0.354-5.026c0.116-2.707,0.286-4.936,0.762-4.98
									C348.425,207.456,349.025,209.716,348.905,212.553z"/>
							</g>
						</g>
					</g>
					<g>
						<g>
							<g>
								<path style="fill:#A65438;" d="M352.732,240.469c2.31-5.623,3.159-10.546,3.658-10.484
									c0.438,0.017,0.331,5.241-2.079,11.124c-2.371,5.899-5.935,9.721-6.261,9.428
									C347.649,250.235,350.47,246.112,352.732,240.469z"/>
							</g>
						</g>
					</g>
					<g>
						<g>
							<g>
								<path style="fill:#A65438;" d="M210.471,225.45c1.35,3.097,3.415,5.061,3.11,5.451c-0.137,0.175-0.869-0.099-1.82-0.891
									c-0.948-0.784-2.066-2.131-2.845-3.864c-0.774-1.735-1.034-3.467-0.987-4.696c0.043-1.237,0.327-1.965,0.548-1.951
									C208.971,219.531,209.06,222.379,210.471,225.45z"/>
							</g>
						</g>
					</g>
					<g>
						<g>
							<g>
								<path style="fill:#A65438;" d="M228.474,223.219c0.769,1.303,1.361,2.453,1.02,2.787c-0.326,0.329-1.595-0.418-2.484-1.914
									c-0.894-1.493-0.948-2.964-0.504-3.094C226.962,220.856,227.693,221.923,228.474,223.219z"/>
							</g>
						</g>
					</g>
					<g>
						<g>
							<g>
								<path style="fill:#A65438;" d="M230.507,244.172c2.126,1.938,4.278,3.026,4.119,3.49c-0.077,0.213-0.75,0.214-1.751-0.118
									c-0.997-0.328-2.304-1.027-3.507-2.104c-1.2-1.079-2.037-2.303-2.47-3.259c-0.438-0.959-0.51-1.628-0.307-1.728
									C227.036,240.245,228.351,242.267,230.507,244.172z"/>
							</g>
						</g>
					</g>
					<g>
						<g>
							<g>
								<path style="fill:#A65438;" d="M255.38,231.602c0.653,2.14,0.123,3.954-0.332,3.899c-0.482-0.035-0.742-1.61-1.299-3.406
									c-0.531-1.805-1.187-3.259-0.805-3.555C253.292,228.243,254.738,229.459,255.38,231.602z"/>
							</g>
						</g>
					</g>
					<g>
						<g>
							<g>
								<path style="fill:#A65438;" d="M251.645,249.533c2.113,1.166,3.642,2.445,3.415,2.857c-0.227,0.412-2.125-0.199-4.238-1.365
									c-2.113-1.166-3.642-2.445-3.415-2.857C247.634,247.756,249.532,248.367,251.645,249.533z"/>
							</g>
						</g>
					</g>
					<g>
						<g>
							<g>
								<path style="fill:#A65438;" d="M275.956,214.065c0.56,2.898,0.639,5.32,0.177,5.409c-0.462,0.089-1.29-2.188-1.85-5.086
									c-0.56-2.898-0.639-5.32-0.177-5.409C274.568,208.89,275.396,211.167,275.956,214.065z"/>
							</g>
						</g>
					</g>
					<g>
						<g>
							<g>
								<path style="fill:#A65438;" d="M272.314,236.837c-0.1,1.614-0.624,3.015-1.185,3.897c-0.562,0.891-1.105,1.286-1.291,1.163
									c-0.407-0.275,0.638-2.389,0.775-5.163c0.2-2.771-0.582-4.996-0.145-5.219c0.199-0.1,0.69,0.358,1.14,1.311
									C272.06,233.769,272.41,235.223,272.314,236.837z"/>
							</g>
						</g>
					</g>
					<g>
						<g>
							<g>
								<path style="fill:#A65438;" d="M284.019,246.774c1.869-4.345,2.112-8.278,2.615-8.272c0.221,0,0.457,1.008,0.401,2.661
									c-0.052,1.647-0.463,3.934-1.446,6.273c-0.989,2.337-2.339,4.227-3.483,5.414c-1.145,1.194-2.032,1.728-2.186,1.571
									C279.565,254.064,282.212,251.145,284.019,246.774z"/>
							</g>
						</g>
					</g>
					<g>
						<g>
							<g>
								<path style="fill:#A65438;" d="M293.352,224.25c0,1.519-0.382,2.75-0.852,2.75c-0.471,0-0.852-1.231-0.852-2.75
									s0.382-2.75,0.852-2.75C292.971,221.5,293.352,222.731,293.352,224.25z"/>
							</g>
						</g>
					</g>
					<g>
						<g>
							<g>
								<path style="fill:#A65438;" d="M309.64,240.158c2.052-2.808,3.417-5.332,3.871-5.153c0.428,0.148-0.294,3.138-2.491,6.153
									c-2.18,3.027-4.796,4.645-5.07,4.285C305.639,245.066,307.612,242.982,309.64,240.158z"/>
							</g>
						</g>
					</g>
					<g>
						<g>
							<g>
								<path style="fill:#A65438;" d="M314.384,217.151c-0.259,2.654-1.42,4.544-1.841,4.364c-0.451-0.175-0.082-2.143,0.145-4.534
									c0.25-2.388,0.278-4.391,0.755-4.473C313.891,212.416,314.655,214.497,314.384,217.151z"/>
							</g>
						</g>
					</g>
					<g>
						<g>
							<g>
								<path style="fill:#A65438;" d="M332.243,214.061c-0.382,2.418-1.304,4.474-2.195,5.785
									c-0.891,1.321-1.676,1.938-1.848,1.804c-0.405-0.298,1.709-3.422,2.359-7.852c0.733-4.418-0.328-8.038,0.149-8.198
									c0.204-0.075,0.763,0.752,1.209,2.282C332.367,209.402,332.618,211.641,332.243,214.061z"/>
							</g>
						</g>
					</g>
					<g>
						<g>
							<g>
								<path style="fill:#A65438;" d="M309.341,70.522c1.142,0.452,2.053,1.124,2.591,1.717c0.543,0.595,0.733,1.086,0.576,1.252
									c-0.343,0.343-1.832-0.63-3.792-1.385c-1.947-0.788-3.699-1.095-3.715-1.58c-0.001-0.229,0.473-0.457,1.276-0.521
									C307.074,69.941,308.198,70.072,309.341,70.522z"/>
							</g>
						</g>
					</g>
					<g>
						<g>
							<g>
								<path style="fill:#A65438;" d="M361.305,158.124c0.309,3.025-0.381,5.438-0.835,5.373c-0.48-0.057-0.571-2.393-0.861-5.203
									c-0.271-2.813-0.643-5.12-0.184-5.271C359.857,152.869,361.01,155.098,361.305,158.124z"/>
							</g>
						</g>
					</g>
				</g>
				
					<path style="fill:none;stroke:#200808;stroke-width:2.9677;stroke-linecap:round;stroke-linejoin:round;stroke-miterlimit:10;" d="
					M178.281,167.497c2.625,37.024,9.46,93.083,78.938,91.75c69.479-1.333,81.874-24.686,86.114-76.676"/>
			</g>
			<g>
				<g>
					<path style="fill:#FFC7A1;" d="M322.15,163.21c-5.5,14.38,3.75,31.37-7.25,41.62s-27.25,8-37.75-2.57
						c-1.93-1.95-3.97-3.6-6.08-4.97c-1.4-0.93-2.83-1.73-4.29-2.42c0-0.01-0.01-0.01-0.01-0.01c-0.11-0.06-0.23-0.11-0.35-0.16
						c-8.19-3.81-17.13-4.28-25.35-3.08c-26.08,3.8-24.34,21.71-42.92,18.68c-12.85-2.09-24.06-26.08-18.75-61.97
						c5.36-36.19,25.96-44.98,26.6-45.24c0.01,0,0.02-0.01,0.02-0.01c-8.13,8-8.87,16.98-8.87,16.98
						c62.25-1.02,88.01-24.73,88.01-24.73c-0.49,9.75-7.76,17.75-7.76,17.75c21.5-4.25,33.43-15.5,33.43-15.5
						C328.75,121.83,327.65,148.83,322.15,163.21z"/>
					<path style="opacity:0.38;fill:#A9513B;" d="M322.15,163.21c-5.5,14.38,3.75,31.37-7.25,41.62s-27.25,8-37.75-2.57
						c-1.93-1.95-3.97-3.6-6.08-4.97c12.49,6.88,26.51,12.71,36.01,0.79c10.61-13.31,4.27-38.55,8.24-58.09
						c3.96-19.54-5.64-30.74-5.64-30.74c-9.83,6.25-42.18,16.64-42.18,16.64c3-6.62,2.38-12.76,2.38-12.76s-29.38,12.37-53.37,12.76
						c-24,0.38-26.67,8.91-26.67,8.91c2.51-20.26,15.54-31.19,16.16-31.71c0.01,0,0.02-0.01,0.02-0.01
						c-8.13,8-8.87,16.98-8.87,16.98c62.25-1.02,88.01-24.73,88.01-24.73c-0.49,9.75-7.76,17.75-7.76,17.75
						c21.5-4.25,33.43-15.5,33.43-15.5C328.75,121.83,327.65,148.83,322.15,163.21z"/>
					<path style="fill:none;stroke:#200808;stroke-width:3;stroke-linecap:round;stroke-linejoin:round;stroke-miterlimit:10;" d="
						M241.069,191.622c12.021-1.748,25.58,0.059,36.08,10.633c10.5,10.574,26.75,12.824,37.75,2.574s1.75-27.236,7.25-41.618
						c5.5-14.382,6.606-41.382-11.322-65.632c0,0-11.928,11.25-33.428,15.5c0,0,7.268-8,7.759-17.75
						c0,0-25.762,23.714-88.011,24.732c0,0,0.746-8.982,8.874-16.982c0,0-21.181,8.488-26.622,45.25
						c-5.312,35.889,5.896,59.879,18.75,61.973C216.727,213.33,214.989,195.415,241.069,191.622z"/>
				</g>
				<g>
					<g>
						<path style="fill:#FFFFFF;" d="M284.948,134.821c-30.372,1.117-34.001,55.091-1.089,56.766
							C316.772,193.263,319.378,133.555,284.948,134.821z"/>
						<path style="fill:#200808;" d="M303.19,182.57c0,0,10.353-18.87,0.457-34.161c-10.897-16.838-37.095-10.698-41.503,6.273
							c0,0,1.449-16.129,18.918-21.317C298.18,128.282,324.979,152.091,303.19,182.57z"/>
						<path style="fill:#6B321F;" d="M291.676,152.407c6.93,1.5,12.869,6.962,12.949,16.787c0.075,9.306-7.84,17.764-16.734,17.908
							c-8.894,0.144-17.604-4.928-17.752-17.321C269.98,156.41,281.596,150.226,291.676,152.407z"/>
						<path style="fill:#200808;" d="M286.422,159.936c9.947-0.64,11.168,18.338,0.878,19
							C278.382,179.51,276.475,160.576,286.422,159.936z"/>
						<path style="fill:#FFFFFF;" d="M292.178,157.432c4.91-0.316,4.408,9.577,0.443,9.832
							C288.655,167.519,287.835,157.712,292.178,157.432z"/>
						<path style="fill:#FFFFFF;" d="M226.88,166.84v0.01c-1.39,9.79-7.29,18.55-17.81,20.06c-1.17,0.18-2.4,0.26-3.69,0.24
							c-28.52-0.44-27.05-53.41,2.61-50.28C222.36,138.39,228.76,153.55,226.88,166.84z"/>
						<path style="fill:#200808;" d="M189.252,178.044c0,0-7.761-17.294,1.739-30.244c10.461-14.259,32.7-7.301,35.446,7.966
							c0,0-0.244-14.352-15.004-19.958C196.968,130.316,173.333,148.333,189.252,178.044z"/>
						<path style="fill:#6B321F;" d="M226.88,166.84v0.01c-1.39,9.79-7.29,18.55-17.81,20.06c-6.35-1.25-11.81-6.5-11.92-17.02
							c-0.14-13.37,9.92-19.55,18.65-17.37C221.28,153.89,226.04,158.56,226.88,166.84z"/>
						<path style="fill:#200808;" d="M211.211,159.48c9.353-0.693,10.468,19.419,0.793,20.136
							C203.62,180.236,201.859,160.173,211.211,159.48z"/>
						<path style="fill:#FFFFFF;" d="M216.231,157.543c4.251-0.316,3.817,9.577,0.383,9.832
							C213.181,167.63,212.471,157.823,216.231,157.543z"/>
					</g>
					<g>
						<g>
							<path style="fill:#200808;" d="M236.482,154.247c1.261,2.043,2.048,4.3,2.625,6.602c0.549,2.31,0.838,4.701,0.772,7.115
								c-0.056,2.407-0.475,4.858-1.409,7.139c-0.926,2.267-2.441,4.376-4.488,5.644c1.106-2.124,1.822-4.189,2.234-6.341
								c0.428-2.137,0.608-4.315,0.665-6.521c0.064-2.206-0.003-4.439-0.101-6.702C236.69,158.914,236.54,156.632,236.482,154.247z"
								/>
						</g>
						<path style="fill:#FFC7A1;" d="M249.315,183.747c0,0-11.5-3.5-18.333-2.333c-6.833,1.167-6.667,11,3.833,13.833
							c10.5,2.833,19.333-2.193,18.5-8.097"/>
						<g>
							<path style="fill:#200808;" d="M249.315,183.747c-2.59-0.414-5.162-0.807-7.734-1.068c-2.563-0.293-5.137-0.431-7.626-0.332
								c-0.617,0.046-1.237,0.089-1.83,0.187l-0.887,0.141l-0.762,0.226c-0.974,0.351-1.76,0.972-2.202,1.792
								c-0.446,0.813-0.602,1.799-0.425,2.793c0.191,0.997,0.716,1.946,1.391,2.787c1.391,1.693,3.504,2.885,5.808,3.556
								c2.339,0.729,4.809,1.058,7.26,0.994c1.221-0.064,2.45-0.195,3.635-0.5c1.204-0.253,2.346-0.718,3.419-1.298
								c1.096-0.559,2.028-1.377,2.774-2.348c0.731-0.977,1.195-2.204,1.18-3.528c0.336,1.275,0.157,2.715-0.465,3.953
								c-0.614,1.238-1.564,2.326-2.675,3.151c-2.232,1.672-4.95,2.558-7.681,2.903c-2.748,0.367-5.533,0.059-8.211-0.592
								c-2.701-0.701-5.389-2.082-7.365-4.397c-0.93-1.193-1.681-2.595-1.953-4.181c-0.25-1.572-0.026-3.318,0.875-4.742
								c0.881-1.435,2.348-2.412,3.844-2.843c0.376-0.091,0.76-0.19,1.13-0.261l1.052-0.101c0.7-0.05,1.386-0.037,2.07-0.026
								c2.723,0.102,5.346,0.581,7.906,1.222C244.394,181.91,246.905,182.697,249.315,183.747z"/>
						</g>
					</g>
					<g style="opacity:0.38;">
						<path style="fill:#A9513B;" d="M185.458,194.099c0-8.167,19.039-8.545,19.039,0.246
							C204.497,202.266,185.458,202.266,185.458,194.099z"/>
						<path style="fill:#A9513B;" d="M291.788,197.464c0-8.797,22.028-9.205,22.028,0.265
							C313.815,206.261,291.788,206.261,291.788,197.464z"/>
					</g>
					<g>
						<path style="fill:#200808;" d="M265.149,127.913c1.395,0.881,8.674-2.167,21.337-1.167c12.663,1,18.163,5.667,20.163,4.833
							c2-0.833-3.333-14-8-18c-4.667-4-27-6.333-31.667-4.5C265.248,109.761,261.982,125.913,265.149,127.913z"/>
						<path style="fill:#200808;" d="M221.037,130.152c-1.136,0.841-7.066-2.068-17.382-1.114
							c-10.316,0.955-14.797,5.409-16.426,4.614c-1.629-0.796,2.715-13.364,6.517-17.183s21.996-6.046,25.798-4.296
							C220.956,112.824,223.616,128.243,221.037,130.152z"/>
					</g>
					<g>
						<path style="fill:#8E2F2F;" d="M257.429,210.45c-0.35,4.72-2.19,9.21-7.45,10.8c-3.54,1.07-6.49,0.71-8.91-0.56
							c-6.24-3.23-8.97-12.42-9.25-18.43c0,0,0.23-0.03,0.65-0.09c2.96-0.44,15.28-2.36,23.01-5.42c0,0,1.15,3.3,1.71,7.51
							C257.449,206.21,257.589,208.35,257.429,210.45z"/>
						
							<path style="fill:none;stroke:#200808;stroke-width:2.5;stroke-linecap:round;stroke-linejoin:round;stroke-miterlimit:10;" d="
							M257.429,210.45c-0.35,4.72-2.19,9.21-7.45,10.8c-3.54,1.07-6.49,0.71-8.91-0.56c-6.24-3.23-8.97-12.42-9.25-18.43
							c0,0,0.23-0.03,0.65-0.09c2.96-0.44,15.28-2.36,23.01-5.42c0,0,1.15,3.3,1.71,7.51
							C257.449,206.21,257.589,208.35,257.429,210.45z"/>
						<path style="fill:#FFFFFF;" d="M257.189,204.26c-17.25,7.04-23.13,0.56-24.72-2.09c2.96-0.44,15.28-2.36,23.01-5.42
							C255.479,196.75,256.629,200.05,257.189,204.26z"/>
						
							<path style="fill:none;stroke:#200808;stroke-width:2.5;stroke-linecap:round;stroke-linejoin:round;stroke-miterlimit:10;" d="
							M257.189,204.26c-17.25,7.04-23.13,0.56-24.72-2.09c2.96-0.44,15.28-2.36,23.01-5.42
							C255.479,196.75,256.629,200.05,257.189,204.26z"/>
						<path style="fill:#EA5A59;" d="M257.429,210.45c-0.35,4.72-2.19,9.21-7.45,10.8c-3.54,1.07-6.49,0.71-8.91-0.56
							C242.879,215.86,247.259,209.23,257.429,210.45z"/>
						
							<path style="fill:none;stroke:#200808;stroke-width:2.5;stroke-linecap:round;stroke-linejoin:round;stroke-miterlimit:10;" d="
							M257.429,210.45c-0.35,4.72-2.19,9.21-7.45,10.8c-3.54,1.07-6.49,0.71-8.91-0.56
							C242.879,215.86,247.259,209.23,257.429,210.45z"/>
					</g>
					<g>
						<path style="fill:#FFC7A1;" d="M339.97,197.95c-0.71,0.1-1.42,0.14-2.15,0.13c-10.51-0.15-9.26-24.17-4.84-34.17
							c0.87-1.96,2.64-3.61,4.87-4.71c6.03-3.04,15.36-2.15,18.8,7.05C361.55,179.34,352.54,196.36,339.97,197.95z"/>
						<path style="opacity:0.38;fill:#A9513B;" d="M339.97,197.95c2.41-3.16,4.42-6.7,5.76-10.65c2.37-6.98,2.4-15.33-0.91-21.74
							c-1.88-3.64-4.32-5.42-6.97-6.36c6.03-3.04,15.36-2.15,18.8,7.05C361.55,179.34,352.54,196.36,339.97,197.95z"/>
						<path style="fill:none;stroke:#200808;stroke-width:3;stroke-linecap:round;stroke-linejoin:round;stroke-miterlimit:10;" d="
							M332.982,163.913c3.223-7.286,18.965-10.254,23.667,2.333c5.167,13.833-5.167,32.03-18.833,31.833
							C327.307,197.928,328.558,173.913,332.982,163.913z"/>
						<g>
							<path style="fill:#200808;" d="M351.315,172.413c-0.443-1.133-1.09-2.165-1.869-3.006c-0.791-0.831-1.766-1.407-2.799-1.571
								c-1.028-0.182-2.096-0.025-3.122,0.345c-0.929,0.429-1.804,0.915-2.467,1.776c-1.382,1.598-2.261,3.768-2.918,5.951
								c-0.645,2.193-1.118,4.546-1.333,6.792l-2.918-0.587c0.505-1.406,1.156-2.545,2.1-3.671c0.917-1.087,2.234-2.101,3.848-2.395
								c1.598-0.297,3.182,0.095,4.419,0.738c0.329,0.138,0.634,0.383,0.946,0.575l0.462,0.31l0.412,0.408
								c0.56,0.519,0.982,1.217,1.276,1.928c0.569,1.465,0.466,3.068-0.067,4.359c-0.528,1.307-1.361,2.404-2.336,3.3
								c-0.99,0.889-2.176,1.506-3.391,1.906c-1.227,0.41-2.526,0.424-3.742,0.293c0.61-0.134,1.218-0.152,1.783-0.391
								c0.284-0.1,0.573-0.167,0.845-0.285l0.796-0.389c1.012-0.584,1.957-1.27,2.653-2.169c0.712-0.869,1.258-1.856,1.515-2.873
								c0.272-1.014,0.202-2.035-0.211-2.818c-0.411-0.788-1.165-1.344-2.055-1.766c-0.955-0.428-1.9-0.538-2.707-0.339
								c-1.619,0.306-3.031,2.31-3.692,4.194l-0.03,0.086c-0.272,0.777-1.124,1.186-1.901,0.914
								c-0.673-0.236-1.07-0.907-0.987-1.587c0.311-2.563,0.806-4.978,1.628-7.397c0.44-1.194,0.909-2.383,1.553-3.521
								c0.281-0.579,0.685-1.124,1.04-1.671c0.203-0.265,0.43-0.518,0.645-0.775c0.213-0.258,0.431-0.512,0.701-0.734
								c0.942-0.98,2.265-1.68,3.606-2.034c1.298-0.28,2.724-0.324,4.038,0.124c1.309,0.459,2.39,1.385,3.063,2.474
								C350.777,169.995,351.173,171.2,351.315,172.413z"/>
						</g>
					</g>
				</g>
			</g>
		</g>
	</g>
</g>
<g id="TEXTS">
	<g>
		
			<text transform="matrix(0.9936 -0.1126 0.1126 0.9936 149.2319 307.0399)" style="fill:#200808; font-family:'LuckiestGuy-Regular'; font-size:40.0902px;">I</text>
		
			<text transform="matrix(0.9936 -0.1126 0.1126 0.9936 143.8062 347.8136)" style="fill:#200808; font-family:'LuckiestGuy-Regular'; font-size:40.0902px;">YOU!</text>
	</g>
</g>
</svg>
