<?xml version="1.0" encoding="utf-8"?>
<!-- Generator: Adobe Illustrator 27.5.0, SVG Export Plug-In . SVG Version: 6.00 Build 0)  -->
<svg version="1.1" xmlns="http://www.w3.org/2000/svg" xmlns:xlink="http://www.w3.org/1999/xlink" x="0px" y="0px"
	 viewBox="0 0 500 500" style="enable-background:new 0 0 500 500;" xml:space="preserve">
<g id="BACKGROUND">
</g>
<g id="OBJECTS">
	<ellipse style="opacity:0.21;fill:#949599;" cx="253.152" cy="452.585" rx="113.848" ry="19.415"/>
	<g>
		<circle style="fill:#FDE36A;" cx="254.84" cy="171.667" r="136"/>
		<g>
			<g>
				<path style="fill:#FFC7A1;" d="M249.33,424.64c-0.12,3.34-1.22,6.93-2.78,10.39c-3.84,8.51-10.52,16.28-12.64,17.99
					c-2.98,2.4-2.92,8.73-8.59,9.39c-5.68,0.65-6.55-2.4-6.55-2.4c-3.93,1.09-5.68-2.19-5.68-2.19c-3.8,1.49-5.72-0.65-6.43-1.78
					c-0.24-0.36-0.34-0.62-0.34-0.62c-4.58,0.22-5.89-6.77-3.06-11.57c2.05-3.46,4.69-10.28,6.12-13.54
					c2.17-4.95,8.15-12.55,13.1-9.94C230.34,424.52,249.33,424.64,249.33,424.64z"/>
				<path style="opacity:0.38;fill:#A9513B;" d="M249.33,424.64c-0.12,3.34-1.22,6.93-2.78,10.39c-3.93,1.28-8.32,1.29-13.11,0.09
					c-4.11-1.03-8.2-3.03-12.38-2.32c-0.46,0.08-0.9,0.19-1.33,0.32c-6.95,2.11-9.5,10.77-12.08,16.75
					c-0.98,2.27-1.2,4.28-0.99,6.17c-0.24-0.36-0.34-0.62-0.34-0.62c-4.58,0.22-5.89-6.77-3.06-11.57
					c2.05-3.46,4.69-10.28,6.12-13.54c2.17-4.95,8.15-12.55,13.1-9.94C230.34,424.52,249.33,424.64,249.33,424.64z"/>
				<path style="fill:none;stroke:#200808;stroke-width:3;stroke-linecap:round;stroke-linejoin:round;stroke-miterlimit:10;" d="
					M222.478,420.368c-4.946-2.61-10.932,4.993-13.1,9.944c-1.426,3.256-4.069,10.077-6.113,13.537
					c-2.838,4.803-1.528,11.79,3.057,11.572c0,0,1.747,4.367,6.768,2.402c0,0,1.755,3.275,5.681,2.183c0,0,0.869,3.057,6.546,2.402
					c5.677-0.655,5.614-6.987,8.593-9.388c2.979-2.402,14.988-16.812,15.424-28.384
					C249.333,424.636,230.338,424.517,222.478,420.368z"/>
				<g>
					<g>
						<path style="fill:none;stroke:#200808;stroke-width:3;stroke-linecap:round;stroke-linejoin:round;stroke-miterlimit:10;" d="
							M218.77,460.006c-0.877-3.057,0.869-4.803,3.271-6.768c2.402-1.965,2.838-4.585,2.838-4.585"/>
						<path style="fill:none;stroke:#200808;stroke-width:3;stroke-linecap:round;stroke-linejoin:round;stroke-miterlimit:10;" d="
							M213.089,457.823c-2.183-2.838,2.402-9.17,2.402-9.17"/>
						<path style="fill:none;stroke:#200808;stroke-width:3;stroke-linecap:round;stroke-linejoin:round;stroke-miterlimit:10;" d="
							M206.321,455.421c-1.092-3.712,0-7.423,3.057-8.952"/>
					</g>
				</g>
			</g>
			<g>
				<path style="fill:#FFC7A1;" d="M300.99,454.42c0,0-1.75,4.37-6.77,2.4c0,0-1.75,3.28-5.68,2.19c0,0-0.22,0.76-1.15,1.45
					c-0.93,0.68-2.56,1.27-5.4,0.95c-5.67-0.66-5.61-6.99-8.59-9.39c-2.98-2.4-14.99-16.81-15.42-28.38c0,0,18.99-0.12,26.85-4.27
					c4.95-2.61,10.93,4.99,13.1,9.94c0.21,0.49,0.45,1.06,0.72,1.68c1.49,3.55,3.66,8.92,5.4,11.86
					C306.88,447.65,305.57,454.64,300.99,454.42z"/>
				<path style="opacity:0.38;fill:#A9513B;" d="M273.23,435.16c-3.96,5.41,4.17,10.62,6.46,14.51c2.54,4.29,4.41,7.23,7.7,10.79
					c-0.93,0.68-2.56,1.27-5.4,0.95c-5.67-0.66-5.61-6.99-8.59-9.39c-2.98-2.4-14.99-16.81-15.42-28.38c0,0,18.99-0.12,26.85-4.27
					c4.95-2.61,10.93,4.99,13.1,9.94c0.21,0.49,0.45,1.06,0.72,1.68c-3,0.22-6.06,0.12-8.95,0.41c-2.92,0.3-9.23,0.38-13.29,1.77
					C275,433.66,273.86,434.3,273.23,435.16z"/>
				<path style="fill:none;stroke:#200808;stroke-width:3;stroke-linecap:round;stroke-linejoin:round;stroke-miterlimit:10;" d="
					M284.832,419.368c4.946-2.61,10.932,4.993,13.1,9.944c1.426,3.256,4.069,10.077,6.113,13.537
					c2.838,4.803,1.528,11.79-3.057,11.572c0,0-1.747,4.367-6.768,2.402c0,0-1.755,3.275-5.681,2.183c0,0-0.869,3.057-6.546,2.402
					s-5.614-6.987-8.593-9.388s-14.988-16.812-15.424-28.384C257.976,423.636,276.971,423.517,284.832,419.368z"/>
				<g>
					<path style="fill:none;stroke:#200808;stroke-width:3;stroke-linecap:round;stroke-linejoin:round;stroke-miterlimit:10;" d="
						M288.539,459.006c0.877-3.057-0.869-4.803-3.271-6.768s-2.838-4.585-2.838-4.585"/>
					<path style="fill:none;stroke:#200808;stroke-width:3;stroke-linecap:round;stroke-linejoin:round;stroke-miterlimit:10;" d="
						M294.22,456.823c2.183-2.838-2.402-9.17-2.402-9.17"/>
					<path style="fill:none;stroke:#200808;stroke-width:3;stroke-linecap:round;stroke-linejoin:round;stroke-miterlimit:10;" d="
						M300.989,454.421c1.092-3.712,0-7.423-3.057-8.952"/>
				</g>
			</g>
			<path style="fill:#6B321F;" d="M344.38,263.33c0,0-0.43-11-3.57-16c0,0-8.94,49.67-80.92,51.67c-16.94,0.47-30.88-1.5-42.31-4.95
				c-37.13-11.25-47.66-38.27-47.91-48.72c0,0-4.17,8-1.92,18c0,0-10.08-11.38-7.25-35.52s11-42.37,10.17-67.46
				c-1.34-40.35,12.62-82.68,82.98-83.68c0,0-3.2-5.34-9.09-6.67c0,0,6.56-3.33,15.33,4.67c0,0,1.03-4.99,9.98-9.18
				c1.89-0.88,4.15-1.73,6.82-2.48c-0.17,0.09-1.38,0.77-2.76,2.09c-2.27,2.17-5.01,6.06-4.35,11.9c0,0,2.6-4,22.34,3.33
				c19.75,7.34,40.69,8,48.89,7c5.47-0.67,4.31,7.73-1.12,14.67c-0.01,0-0.01,0-0.01,0c-2.7,3.46-6.47,6.56-11.01,8
				c0,0,9.66,3.33,14.33,27.33s-6.57,45.46,1.38,68.9C352.33,229.67,358.43,244.67,344.38,263.33z"/>
			<path style="opacity:0.3;fill:#3F1A10;" d="M339.69,102c-0.01,0-0.01,0-0.01,0c3.47-5.85-1.41-8-23.04-6.5
				C295,97,273.67,85,262.33,86c0,0-35.29-5-60.56,19.5s-42.27,111.5-1.02,139s108.66,7.5,118.69-30.17c0,0,6-12.67,13.28-3.5
				s-3.93,61.78-72.83,77.67c-15.78,3.65-29.88,5.5-42.31,5.55c-37.13-11.25-47.66-38.27-47.91-48.72c0,0-4.17,8-1.92,18
				c0,0-10.08-11.38-7.25-35.52s11-42.37,10.17-67.46c-1.34-40.35,12.62-82.68,82.98-83.68c0,0-3.2-5.34-9.09-6.67
				c0,0,6.56-3.33,15.33,4.67c0,0,1.03-4.99,9.98-9.18c1.36-0.13,2.71-0.26,4.06-0.39c-2.27,2.17-5.01,6.06-4.35,11.9
				c0,0,2.6-4,22.34,3.33c19.75,7.34,40.69,8,48.89,7C346.28,86.66,345.12,95.06,339.69,102z"/>
			<path style="fill:none;stroke:#200808;stroke-width:3;stroke-linecap:round;stroke-linejoin:round;stroke-miterlimit:10;" d="
				M167.751,263.333c0,0-10.084-11.381-7.251-35.524c2.833-24.143,10.995-42.373,10.167-67.458
				c-1.333-40.352,12.625-82.685,82.979-83.685c0,0-3.194-5.333-9.087-6.667c0,0,6.562-3.333,15.335,4.667
				c0,0,1.518-7.333,16.812-11.667c0,0-8.212,4.333-7.126,14c0,0,2.601-4,22.344,3.333c19.743,7.333,40.69,8,48.883,7
				c8.193-1,1.527,18.333-12.14,22.667c0,0,9.667,3.333,14.333,27.333c4.667,24-6.572,45.456,1.381,68.894
				c7.953,23.439,14.047,38.439,0,57.106c0,0-0.434-11-3.574-16c0,0-8.934,49.667-80.913,51.667S170,259,169.667,245.333
				C169.667,245.333,165.501,253.333,167.751,263.333z"/>
			<g>
				<g>
					<g>
						<path style="fill:#FFC7A1;" d="M393.7,345.67c-3.32,1.94-13.06-2.5-13.64-2.76c0.61,0.49,10.62,8.56,10.14,13.09
							c-0.5,4.67-5,4.97-8.17,4.15c-3.1-0.8-9.68-8.45-9.99-8.8c0.3,0.58,6.56,12.88,2.32,15.32c-0.11,0.06-0.21,0.12-0.31,0.16
							c-4.11,2.1-5.89-2.73-7.52-5.5c-1.67-2.83-3-7.99-3.83-8.24c-0.84-0.26-12-5.76-14.84-7.76c0,0,10.17-13.16,12-26.66
							c0,0,4.83,0.95,8.84,1.85c1.57,0.35,3.02,0.7,4,0.98c3.5,1,5.33,1.33,7.16,0c1.84-1.33,6-5,8.17-5.33c2.17-0.34,5.67,2,5,5.5
							s-6.83,10.16-13,10.5c0,0,9,2.54,13.08,4.77C397.2,339.17,397.11,343.67,393.7,345.67z"/>
						<path style="opacity:0.38;fill:#A9513B;" d="M374.05,366.83c-4.11,2.1-5.89-2.73-7.52-5.5c-1.67-2.83-3-7.99-3.83-8.24
							c-0.84-0.26-12-5.76-14.84-7.76c0,0,10.17-13.16,12-26.66c0,0,4.83,0.95,8.84,1.85c-1.03,6.19-2.76,11.64-3.03,17.76
							c-0.04,0.75-0.05,1.51-0.03,2.29c0.01,0.88,0.06,1.78,0.15,2.7c0.79,8.24,3.49,16.31,8.04,23.24
							C373.9,366.62,373.97,366.72,374.05,366.83z"/>
						<path style="fill:none;stroke:#200808;stroke-width:3;stroke-linecap:round;stroke-linejoin:round;stroke-miterlimit:10;" d="
							M380.031,332.167c0,0,9,2.545,13.083,4.772c4.084,2.228,4,6.728,0.584,8.728c-3.416,2-13.667-2.774-13.667-2.774
							s10.667,8.44,10.167,13.107s-5,4.974-8.167,4.154c-3.167-0.82-10-8.82-10-8.82s6.667,12.833,2.333,15.333
							c-4.333,2.5-6.167-2.5-7.833-5.333c-1.667-2.833-3-7.995-3.833-8.247c-0.833-0.253-12-5.753-14.833-7.753
							c0,0,10.167-13.167,12-26.667c0,0,9.333,1.833,12.833,2.833s5.333,1.333,7.167,0c1.833-1.333,6-5,8.167-5.333
							c2.167-0.333,5.667,2,5,5.5C392.365,325.167,386.198,331.833,380.031,332.167c0,0-4.833,11.933-17.833,7.583"/>
					</g>
					<g>
						<path style="fill:#EF2A3C;" d="M355.78,336.94c-5.2,12.12-10.62,18.91-15.06,21.69c-2.18,1.38-4.13,1.78-5.69,1.37
							c-4.75-1.25-26-8.3-34.5-15.9s-10.7-80.77-10.7-80.77c3.45-0.08,15.95,12.75,32.7,17.34c6.66,1.82,14.16,3.99,20.88,6.17
							c10.17,3.31,18.57,6.65,19.62,8.91C364.78,299.5,363.53,318.88,355.78,336.94z"/>
						<g>
							<g>
								<g>
									<g>
										<path style="fill:#FF7676;" d="M358.832,301.538c0.247,2.427-0.623,4.28-1.061,4.15c-0.47-0.116-0.413-1.888-0.635-3.983
											c-0.193-2.097-0.597-3.824-0.159-4.03C357.382,297.463,358.598,299.11,358.832,301.538z"/>
									</g>
								</g>
							</g>
							<g>
								<g>
									<g>
										<path style="fill:#FF7676;" d="M352.996,329.243c1.286-4.19,2.307-8.043,3.118-10.822c0.806-2.78,1.403-4.484,1.634-4.431
											c0.227,0.052,0.047,1.846-0.461,4.705c-0.513,2.857-1.356,6.79-2.663,11.051c-1.31,4.259-2.917,7.995-4.338,10.557
											c-1.414,2.568-2.554,3.99-2.739,3.877c-0.218-0.13,0.545-1.753,1.653-4.4
											C350.318,337.136,351.707,333.432,352.996,329.243z"/>
									</g>
								</g>
							</g>
						</g>
						<path style="opacity:0.37;fill:#560D18;" d="M329.86,294.48c-2.32,4.19-1.95,9.3-1.45,14.06c0.87,8.21,1.96,16.4,3.27,24.55
							c1.37,8.56,3.11,17.4,8.19,24.43c0.27,0.38,0.56,0.75,0.85,1.11c-2.18,1.38-4.13,1.78-5.69,1.37c-4.75-1.25-26-8.3-34.5-15.9
							s-10.7-80.77-10.7-80.77c3.45-0.08,15.95,12.75,32.7,17.34c6.66,1.82,14.16,3.99,20.88,6.17c-0.34,0.02-0.69,0.06-1.04,0.1
							C337.35,287.57,332.3,290.05,329.86,294.48z"/>
						<path style="fill:none;stroke:#200808;stroke-width:3;stroke-linecap:round;stroke-linejoin:round;stroke-miterlimit:10;" d="
							M289.833,263.333c3.448-0.083,15.948,12.75,32.698,17.333c16.75,4.583,38.75,11.333,40.5,15.083s0.5,23.128-7.25,41.189
							c-7.75,18.061-16,24.311-20.75,23.061s-26-8.301-34.5-15.901C292.031,336.5,289.833,263.333,289.833,263.333z"/>
					</g>
				</g>
				<g>
					<g>
						<path style="fill:#FFC7A1;" d="M155.17,345.33c-1.29,0.91-4.3,2.54-7.28,4.07c-3.57,1.85-7.1,3.55-7.56,3.69
							c-0.83,0.25-2.16,5.41-3.83,8.24c-1.67,2.84-3.5,7.84-7.83,5.34c-4.24-2.44,2.02-14.74,2.32-15.32c-0.31,0.35-6.89,8-9.99,8.8
							c-3.17,0.82-7.67,0.52-8.17-4.15c-0.48-4.53,9.53-12.6,10.14-13.09c-0.46,0.2-6.59,3-10.8,3.23
							c-1.14,0.07-2.13-0.06-2.84-0.47c-3.41-2-3.5-6.5,0.59-8.73c4.08-2.23,13.08-4.77,13.08-4.77c-6.17-0.34-12.33-7-13-10.5
							s2.83-5.84,5-5.5c2.17,0.33,6.33,4,8.17,5.33c1.83,1.33,3.66,1,7.16,0s12.84-2.83,12.84-2.83
							C145,332.17,155.17,345.33,155.17,345.33z"/>
						<path style="opacity:0.38;fill:#A9513B;" d="M155.17,345.33c-1.29,0.91-4.3,2.54-7.28,4.07c-3.51-4.9-4.78-12.02-10.01-14.61
							c-0.79-0.39-1.68-0.68-2.67-0.84c-2.1-0.34-4.24,0.01-6.33,0.37c-0.2,0.03-0.39,0.07-0.59,0.1c-1.19,0.21-2.38,0.42-3.55,0.69
							c-2.31,0.5-4.55,1.2-6.59,2.38c-3.74,2.17-4.53,5.55-5.98,8.65c-1.14,0.07-2.13-0.06-2.84-0.47c-3.41-2-3.5-6.5,0.59-8.73
							c4.08-2.23,13.08-4.77,13.08-4.77c-6.17-0.34-12.33-7-13-10.5s2.83-5.84,5-5.5c2.17,0.33,6.33,4,8.17,5.33
							c1.83,1.33,3.66,1,7.16,0s12.84-2.83,12.84-2.83C145,332.17,155.17,345.33,155.17,345.33z"/>
						<path style="fill:none;stroke:#200808;stroke-width:3;stroke-linecap:round;stroke-linejoin:round;stroke-miterlimit:10;" d="
							M123,332.167c0,0-9,2.545-13.083,4.772c-4.084,2.228-4,6.728-0.584,8.728c3.416,2,13.667-2.774,13.667-2.774
							s-10.667,8.44-10.167,13.107s5,4.974,8.167,4.154c3.167-0.82,10-8.82,10-8.82s-6.667,12.833-2.333,15.333
							c4.333,2.5,6.167-2.5,7.833-5.333c1.667-2.833,3-7.995,3.833-8.247c0.833-0.253,12-5.753,14.833-7.753
							c0,0-10.167-13.167-12-26.667c0,0-9.333,1.833-12.833,2.833c-3.5,1-5.333,1.333-7.167,0c-1.833-1.333-6-5-8.167-5.333
							c-2.167-0.333-5.667,2-5,5.5C110.667,325.167,116.833,331.833,123,332.167c0,0,4.833,11.933,17.833,7.583"/>
					</g>
					<g>
						<g>
							<path style="fill:#EF2A3C;" d="M213.2,263.33c0,0-2.2,73.17-10.7,80.77c-5.76,5.15-17.38,10.05-25.75,13.06
								c-3.97,1.44-7.22,2.44-8.75,2.84c-4.75,1.25-13-5-20.75-23.06c-1.35-3.15-2.5-6.33-3.47-9.47
								c-4.62-14.87-5.23-28.62-3.78-31.72c1.75-3.75,23.75-10.5,40.5-15.08C197.25,276.08,209.75,263.25,213.2,263.33z"/>
							<path style="opacity:0.37;fill:#560D18;" d="M213.2,263.33c0,0-2.2,73.17-10.7,80.77c-5.76,5.15-17.38,10.05-25.75,13.06
								c2.13-13.83,3.29-27.92,5.02-41.79c0.32-2.61,0.6-5.48-0.83-7.7c-2.32-3.62-7.73-3.47-11.76-1.96
								c-9.62,3.61-16.49,11.97-23.38,19.58c-0.66,0.73-1.33,1.46-2.02,2.18c-4.62-14.87-5.23-28.62-3.78-31.72
								c1.75-3.75,23.75-10.5,40.5-15.08C197.25,276.08,209.75,263.25,213.2,263.33z"/>
							<g>
								<g>
									<g>
										<g>
											<g>
												<path style="fill:#FF7676;" d="M169.451,353.736c1.727-0.733,2.794-1.955,3.223-1.731
													c0.195,0.11,0.172,0.627-0.225,1.313c-0.39,0.681-1.197,1.482-2.305,1.976c-1.109,0.492-2.245,0.555-3.012,0.388
													c-0.775-0.164-1.175-0.494-1.125-0.712C166.128,354.5,167.75,354.527,169.451,353.736z"/>
											</g>
										</g>
									</g>
									<g>
										<g>
											<g>
												<path style="fill:#FF7676;" d="M154.97,336.312c2.263,5.588,4.177,10.108,3.749,10.328
													c-0.406,0.214-3.031-4.017-5.328-9.687c-2.309-5.665-3.38-10.527-2.939-10.658
													C150.913,326.155,152.693,330.729,154.97,336.312z"/>
											</g>
										</g>
									</g>
								</g>
							</g>
							
								<path style="fill:none;stroke:#200808;stroke-width:3;stroke-linecap:round;stroke-linejoin:round;stroke-miterlimit:10;" d="
								M213.198,263.333c-3.448-0.083-15.948,12.75-32.698,17.333C163.75,285.25,141.75,292,140,295.75s-0.5,23.128,7.25,41.189
								C155,355,163.25,361.25,168,360s26-8.301,34.5-15.901C211,336.5,213.198,263.333,213.198,263.333z"/>
						</g>
					</g>
				</g>
				<g>
					<path style="fill:#FFFDE1;" d="M319.33,411.33c-0.66,2.34-17,9.67-17,9.67c1.34,3.67-20,9.33-50.33,9.33
						c-22.24,0-37.14-5.38-44.16-8.78c-2.56-1.23-4.07-2.2-4.51-2.55c-1.66-1.33,0-4.33,0-4.33c-3.66-1-15.33-6.67-15.66-9
						c0,0,12-106,25-130.34c13-24.33,20.66-19.33,43.72-19.66c23.06-0.34,26.61,2.66,34.61,17.66s18.79,68.34,22.67,91.34
						c2.41,14.32,4.27,27.99,5.17,36.83C319.39,406.86,319.58,410.45,319.33,411.33z"/>
					<path style="opacity:0.38;fill:#949599;" d="M318.84,401.5c-3.54,2.31-9.19,4.96-17.44,6c0,0-6.23,4.5-11.57,2
						c-5.33-2.5-9.17-93-20.25-134.5c0,0-2.91,0.5-7.25,2c0,0-6.81,11-9.32,10.5c-2.51-0.5-7.68-12.5-7.68-12.5s-6-0.5-9.66-2
						c-3.67-1.5-10.791,133-15.68,137.26c-1.138,0.991-5.49-2.25-7.49,0c-1.32,1.48-3.16,6.57-4.66,11.29
						c-2.56-1.23-4.07-2.2-4.51-2.55c-1.66-1.33,0-4.33,0-4.33c-3.66-1-15.33-6.67-15.66-9c0,0,12-106,25-130.34
						c13-24.33,20.66-19.33,43.72-19.66c23.06-0.34,26.61,2.66,34.61,17.66s18.79,68.34,22.67,91.34
						C316.08,378.99,317.94,392.66,318.84,401.5z"/>
					<path style="fill:none;stroke:#200808;stroke-width:3;stroke-linecap:round;stroke-linejoin:round;stroke-miterlimit:10;" d="
						M187.667,405.667c0.333,2.333,12,8,15.667,9c0,0-1.667,3,0,4.333c1.667,1.333,18.333,11.333,48.667,11.333
						c30.333,0,51.667-5.667,50.333-9.333c0,0,16.333-7.333,17-9.667c0.667-2.333-1.791-23.667-5.667-46.667
						c-3.876-23-14.667-76.333-22.667-91.333s-11.552-18-34.609-17.667C233.333,256,225.667,251,212.667,275.333
						C199.667,299.667,187.667,405.667,187.667,405.667z"/>
					<path style="fill:none;stroke:#200808;stroke-width:3;stroke-linecap:round;stroke-linejoin:round;stroke-miterlimit:10;" d="
						M203.333,414.667c0.667-12,10-82.667,12.667-96"/>
					<path style="fill:none;stroke:#200808;stroke-width:3;stroke-linecap:round;stroke-linejoin:round;stroke-miterlimit:10;" d="
						M302.333,421c0.333-14.667-7.333-75.667-15.667-104"/>
				</g>
				<g>
					<path style="fill:#FFCA4A;" d="M309,346.5c-2.24,2.88-13.68,7.59-28.89,10.62c-8.58,1.71-18.36,2.88-28.36,2.88
						c-9.56,0-18.57-1.7-26.4-4.05c-14.9-4.47-25.51-11.26-27.43-13.06c-2.92-2.74-0.11-8.9,1.02-15.06
						c1.14-6.16-0.73-9.83,2.04-10.83c1.51-0.54,8.78,8.95,27.06,14.29c6.34,1.85,14,3.2,23.21,3.46
						c10.2,0.29,18.89-0.94,26.14-2.78c18.16-4.64,27.35-13.22,28.92-11.97c2.19,1.75,1.19,5.06,2.69,9.78S312.5,342,309,346.5z"/>
					<path style="opacity:0.45;fill:#A9513B;" d="M228.04,331.29c-0.24,2.02-0.48,4.01-0.69,5.98c-0.67,6.23-1.33,12.45-2,18.68
						c-14.9-4.47-25.51-11.26-27.43-13.06c-2.92-2.74-0.11-8.9,1.02-15.06c1.14-6.16-0.73-9.83,2.04-10.83
						C202.49,316.46,209.76,325.95,228.04,331.29z"/>
					<path style="opacity:0.45;fill:#A9513B;" d="M309,346.5c-2.24,2.88-13.68,7.59-28.89,10.62c-0.71-6.62-1.41-13.23-2.12-19.85
						c-0.19-1.75-0.39-3.51-0.6-5.3c18.16-4.64,27.35-13.22,28.92-11.97c2.19,1.75,1.19,5.06,2.69,9.78S312.5,342,309,346.5z"/>
					<path style="fill:none;stroke:#200808;stroke-width:3;stroke-linecap:round;stroke-linejoin:round;stroke-miterlimit:10;" d="
						M200.979,317c2.028-0.732,14.521,16.75,50.271,17.75s52.867-16.5,55.058-14.75c2.192,1.75,1.192,5.057,2.692,9.779
						c1.5,4.721,3.5,12.221,0,16.721S279.5,360,251.75,360s-50.903-14.367-53.827-17.107c-2.923-2.74-0.117-8.904,1.019-15.063
						S198.208,318,200.979,317z"/>
					<g>
						<g>
							<g>
								<path style="fill:#200808;" d="M205.25,331.75c3.83,1.853,7.769,3.41,11.769,4.753c3.989,1.371,8.052,2.493,12.147,3.418
									c8.193,1.839,16.564,2.765,24.918,2.662c8.36-0.07,16.679-1.297,24.786-3.434c8.081-2.248,15.91-5.458,23.472-9.37
									c-6.907,4.978-14.641,8.886-22.8,11.613c-2.063,0.6-4.103,1.312-6.214,1.75c-1.05,0.239-2.093,0.516-3.15,0.722l-3.18,0.588
									c-4.26,0.657-8.565,1.074-12.88,1.13c-4.313,0.006-8.626-0.232-12.897-0.793c-4.266-0.586-8.497-1.423-12.628-2.606
									c-4.141-1.143-8.186-2.599-12.108-4.314C212.584,336.124,208.755,334.18,205.25,331.75z"/>
							</g>
							<g>
								<path style="fill:#200808;" d="M200.75,339.75c4.01,1.792,8.107,3.32,12.257,4.664c4.139,1.372,8.34,2.525,12.568,3.519
									c4.236,0.963,8.494,1.812,12.794,2.371c4.292,0.596,8.605,1.008,12.93,1.18c4.324,0.193,8.653,0.119,12.974-0.124
									c4.321-0.264,8.621-0.796,12.903-1.487c8.553-1.462,16.943-3.889,25.169-6.98c-7.702,4.228-16.068,7.351-24.718,9.278
									c-2.168,0.453-4.338,0.927-6.538,1.211c-2.189,0.372-4.4,0.565-6.606,0.812c-4.426,0.337-8.87,0.435-13.307,0.286
									c-8.865-0.439-17.687-1.81-26.186-4.289c-4.256-1.209-8.428-2.691-12.495-4.404
									C208.442,344.043,204.453,342.128,200.75,339.75z"/>
							</g>
						</g>
					</g>
				</g>
				<g>
					<path style="fill:#FFC7A1;" d="M235.667,259.333c0,0,2.333,11.333,14.333,11.333l3.646,10l3.809-9
						c0,0,14.592-0.667,16.569-12.333H235.667z"/>
					<path style="fill:none;stroke:#200808;stroke-width:3;stroke-linecap:round;stroke-linejoin:round;stroke-miterlimit:10;" d="
						M235.667,259.333c0,0,2.333,11.333,14.333,11.333l3.646,10l3.809-9c0,0,14.592-0.667,16.569-12.333H235.667z"/>
				</g>
				<g>
					<path style="fill:#EF2A3C;" d="M232.75,258c-0.79,1.26-2.34,6.41-4.42,16.23c-1.52,7.17-3.32,16.82-5.33,29.27
						c-4.75,29.5-9.75,97.75-11.5,99.5s-8.25,0-17-2.75c-0.54-0.17-1.05-0.35-1.51-0.54c-7.01-2.84-5.32-7.46-5.32-7.46
						s-11.03-2.57-12.67-3.75c-2.1-1.51,0.78-8.55,5.25-30c5.75-27.59,9.75-62.75,21-81.75c9.75-16.47,17.5-15,17.5-15
						C230,253.25,234.12,255.82,232.75,258z"/>
					<path style="opacity:0.37;fill:#560D18;" d="M232.75,258c-0.79,1.26-2.34,6.41-4.42,16.23c-4.07,0.38-7.29,1.59-11.22,5
						c-7.5,6.5-14.99,47.84-16.49,68.42c-1.13,15.39-4.9,38.15-5.63,53.06c-7.01-2.84-7.32-8.46-7.32-8.46s-11.03-2.57-12.67-3.75
						c-2.1-1.51,0.78-8.55,5.25-30c5.75-27.59,9.75-62.75,21-81.75c9.75-16.47,17.5-15,17.5-15C230,253.25,234.12,255.82,232.75,258
						z"/>
					<path style="fill:none;stroke:#200808;stroke-width:3;stroke-linecap:round;stroke-linejoin:round;stroke-miterlimit:10;" d="
						M175,388.5c1.635,1.179,12.667,3.75,12.667,3.75s-0.07,5.918,6.833,8c8.781,2.649,15.25,4.5,17,2.75s6.75-70,11.5-99.5
						s8.381-43.315,9.75-45.5c1.369-2.185-2.75-4.75-14,3.75c0,0-7.75-1.467-17.5,15c-11.25,19-15.255,54.162-21,81.75
						C175.783,379.95,172.903,386.988,175,388.5z"/>
					<path style="fill:none;stroke:#200808;stroke-width:3;stroke-linecap:round;stroke-linejoin:round;stroke-miterlimit:10;" d="
						M187.667,392.25c-0.667-9,3.583-27.25,6.333-45.5s7.75-51.417,14.25-66.083"/>
					<path style="fill:#EF2A3C;" d="M329.23,388.5c-1.63,1.18-12.66,3.75-12.66,3.75s1.91,5.25-6.84,8
						c-2.82,0.89-5.41,1.67-7.68,2.27c-4.77,1.24-8.13,1.67-9.32,0.48c-1.75-1.75-6.75-70-11.5-99.5s-8.38-43.32-9.75-45.5
						c-1.37-2.18,2.75-4.75,14,3.75c0,0,5.79-1.1,13.66,9.25c1.24,1.62,2.52,3.52,3.84,5.75c11.25,19,15.26,54.16,21,81.75
						C328.45,379.95,331.33,386.99,329.23,388.5z"/>
					<path style="opacity:0.37;fill:#560D18;" d="M302.05,402.52c-4.77,1.24-8.13,1.67-9.32,0.48c-1.75-1.75-6.75-70-11.5-99.5
						s-8.38-43.32-9.75-45.5c-1.37-2.18,2.75-4.75,14,3.75c0,0,5.79-1.1,13.66,9.25c-9.56-5.99-12.39,12.19-11.43,19.63
						c4.53,35.03,9.06,70.05,13.59,105.08C301.59,397.94,301.86,400.22,302.05,402.52z"/>
					<path style="fill:none;stroke:#200808;stroke-width:3;stroke-linecap:round;stroke-linejoin:round;stroke-miterlimit:10;" d="
						M329.232,388.5c-1.635,1.179-12.667,3.75-12.667,3.75s0.07,6.019-6.833,8c-8.816,2.53-15.25,4.5-17,2.75s-6.75-70-11.5-99.5
						s-8.381-43.315-9.75-45.5c-1.369-2.185,2.75-4.75,14,3.75c0,0,7.75-1.467,17.5,15c11.25,19,15.255,54.162,21,81.75
						C328.449,379.95,331.329,386.988,329.232,388.5z"/>
					<path style="fill:none;stroke:#200808;stroke-width:3;stroke-linecap:round;stroke-linejoin:round;stroke-miterlimit:10;" d="
						M316.565,392.25c0.667-9-3.583-27.25-6.333-45.5s-7.75-51.417-14.25-66.083"/>
					<g>
						<g>
							<g>
								<g>
									<path style="fill:#FF7676;" d="M322.812,374.138c0.55,5.93,0.616,10.773,0.147,10.817
										c-0.468,0.043-1.294-4.729-1.844-10.659c-0.265-2.979-0.422-5.616-0.725-7.497c-0.274-1.885-0.598-3.042-0.369-3.143
										c0.198-0.094,0.94,0.944,1.543,2.87C322.193,368.443,322.549,371.188,322.812,374.138z"/>
								</g>
							</g>
						</g>
						<g>
							<g>
								<g>
									<path style="fill:#FF7676;" d="M320.013,352.839c0.457,2.394,0.452,4.406-0.01,4.494c-0.462,0.088-1.207-1.781-1.664-4.175
										c-0.457-2.394-0.452-4.406,0.01-4.494C318.811,348.576,319.556,350.445,320.013,352.839z"/>
								</g>
							</g>
						</g>
						<g>
							<g>
								<g>
									<path style="fill:#FF7676;" d="M310.468,308.522c1.552,8.277,1.6,15.126,1.15,15.149c-0.49,0.034-1.293-6.674-2.826-14.837
										c-1.506-8.168-3.168-14.717-2.699-14.861C306.521,293.832,308.94,300.24,310.468,308.522z"/>
								</g>
							</g>
						</g>
						<g>
							<g>
								<g>
									<path style="fill:#FF7676;" d="M305.27,332.947c1.626,10.807,1.746,19.683,1.296,19.704
										c-0.49,0.03-1.368-8.732-2.982-19.452c-1.588-10.724-3.307-19.361-2.83-19.475
										C301.192,313.612,303.669,322.136,305.27,332.947z"/>
								</g>
							</g>
						</g>
						<g>
							<g>
								<g>
									<path style="fill:#FF7676;" d="M310.002,366.647c0.418,2.16,0.198,3.973-0.267,4.013c-0.473,0.043-1.006-1.625-1.407-3.691
										c-0.395-2.067-0.519-3.813-0.064-3.949C308.711,362.884,309.588,364.486,310.002,366.647z"/>
								</g>
							</g>
						</g>
						<g>
							<g>
								<g>
									<path style="fill:#FF7676;" d="M312.497,386.704c-0.031,4.589-1.428,8.095-1.855,7.957
										c-0.476-0.127,0.127-3.641,0.151-7.973c0.059-4.332-0.477-7.857,0.002-7.974
										C311.224,378.583,312.554,382.116,312.497,386.704z"/>
								</g>
							</g>
						</g>
						<g>
							<g>
								<g>
									<path style="fill:#FF7676;" d="M211.49,369.325c-0.82,6.944-2.223,12.453-2.677,12.367
										c-0.472-0.086,0.172-5.685,0.985-12.569c0.824-6.883,1.512-12.476,1.991-12.449
										C212.249,356.698,212.321,362.382,211.49,369.325z"/>
								</g>
							</g>
						</g>
						<g>
							<g>
								<g>
									<path style="fill:#FF7676;" d="M215.175,341.704c-0.264,1.958-1.354,3.226-1.756,3.002
										c-0.428-0.22-0.145-1.599,0.067-3.234c0.236-1.632,0.335-3.036,0.806-3.133
										C214.74,338.233,215.447,339.748,215.175,341.704z"/>
								</g>
							</g>
						</g>
						<g>
							<g>
								<g>
									<path style="fill:#FF7676;" d="M220.548,299.023c-1.749,9.665-3.542,17.432-4.005,17.348s0.579-7.987,2.328-17.652
										c1.749-9.665,3.542-17.432,4.005-17.348C223.339,281.455,222.297,289.358,220.548,299.023z"/>
								</g>
							</g>
						</g>
					</g>
				</g>
			</g>
			<g>
				<path style="fill:#6B321F;" d="M325.13,224.95c0,0.01-0.01,0.01-0.01,0.02c-7.81,20.87-26.64,38.36-70.28,38.36
					c-79.91,0-78.57-48.56-77.68-73.56c0.09-2.48,0.17-4.73,0.17-6.67c0-36.6,11.34-81.1,72.67-81.1s78.67,37.33,79.33,63.91
					C329.67,179.27,333.04,203.84,325.13,224.95z"/>
				<path style="opacity:0.3;fill:#3F1A10;" d="M325.12,224.97c-7.81,20.87-26.64,38.36-70.28,38.36
					c-79.91,0-78.57-48.56-77.68-73.56c0.65-0.13,1-0.2,1-0.2c-1.66,16.93,4.68,59.64,61.51,66.29
					C296.46,262.5,319.51,235.22,325.12,224.97z"/>
				<path style="fill:none;stroke:#200808;stroke-width:3;stroke-linecap:round;stroke-linejoin:round;stroke-miterlimit:10;" d="
					M178.159,215.084c3.888,23.327,19.437,48.249,76.681,48.249c51.401,0,68.381-24.268,73.49-49.726"/>
				<g>
					<g>
						<g>
							<g>
								<path style="fill:#A65438;" d="M207.759,137.775c2.327-1.314,4.559-1.335,4.626-0.883c0.092,0.476-1.743,1.203-3.792,2.369
									c-2.063,1.141-3.64,2.329-3.998,2.002C204.244,140.971,205.424,139.077,207.759,137.775z"/>
							</g>
						</g>
					</g>
					<g>
						<g>
							<g>
								<path style="fill:#A65438;" d="M242.066,137.672c3.811-0.736,6.778-1.958,7.01-1.523c0.237,0.381-2.573,2.394-6.678,3.195
									c-4.1,0.827-7.466,0.038-7.392-0.405C235.053,138.448,238.262,138.446,242.066,137.672z"/>
							</g>
						</g>
					</g>
					<g>
						<g>
							<g>
								<path style="fill:#A65438;" d="M266.909,129.569c1.643-0.899,3.019-1.672,3.347-1.322c0.322,0.33-0.671,1.794-2.523,2.814
									c-1.847,1.027-3.616,1.09-3.724,0.642C263.888,131.238,265.274,130.484,266.909,129.569z"/>
							</g>
						</g>
					</g>
					<g>
						<g>
							<g>
								<path style="fill:#A65438;" d="M231.856,126.242c2.03-0.58,3.775-0.354,3.813,0.107c0.044,0.476-1.49,0.998-3.347,1.532
									c-1.861,0.522-3.44,0.884-3.653,0.456C228.457,127.925,229.824,126.815,231.856,126.242z"/>
							</g>
						</g>
					</g>
					<g>
						<g>
							<g>
								<path style="fill:#A65438;" d="M215.928,109.214c1.433-0.859,2.884-1.347,3.957-1.526c1.078-0.182,1.768-0.093,1.814,0.13
									c0.091,0.481-2.306,1.279-4.893,2.857c-2.607,1.544-4.437,3.287-4.819,2.981c-0.175-0.145,0.07-0.797,0.737-1.663
									C213.386,111.129,214.497,110.077,215.928,109.214z"/>
							</g>
						</g>
					</g>
					<g>
						<g>
							<g>
								<path style="fill:#A65438;" d="M247.701,105.478c3.85-1.515,7.262-1.409,7.281-0.96c0.049,0.489-3.072,1.129-6.662,2.548
									c-3.603,1.386-6.333,3.028-6.628,2.636C241.402,109.358,243.841,106.97,247.701,105.478z"/>
							</g>
						</g>
					</g>
					<g>
						<g>
							<g>
								<path style="fill:#A65438;" d="M268.082,113.155c1.586-0.978,3.072-1.446,3.319-1.045c0.247,0.401-0.839,1.518-2.425,2.496
									c-1.586,0.978-3.072,1.446-3.319,1.045C265.41,115.25,266.495,114.132,268.082,113.155z"/>
							</g>
						</g>
					</g>
					<g>
						<g>
							<g>
								<path style="fill:#A65438;" d="M298.952,123.763c3.032-2.841,4.558-5.964,5.021-5.775c0.205,0.082,0.092,1.001-0.5,2.352
									c-0.586,1.347-1.708,3.094-3.345,4.657c-1.641,1.558-3.442,2.593-4.815,3.112c-1.379,0.525-2.302,0.593-2.374,0.384
									C292.771,128.022,295.965,126.652,298.952,123.763z"/>
							</g>
						</g>
					</g>
					<g>
						<g>
							<g>
								<path style="fill:#A65438;" d="M297.3,105.352c2.128-0.685,3.98-0.513,4.028-0.052c0.056,0.475-1.559,1.045-3.509,1.676
									c-1.953,0.618-3.6,1.091-3.83,0.672C293.761,107.244,295.17,106.029,297.3,105.352z"/>
							</g>
						</g>
					</g>
					<g>
						<g>
							<g>
								<path style="fill:#A65438;" d="M331.167,125.747c0.691,1.455,0.89,2.936,0.802,3.973c-0.085,1.046-0.39,1.641-0.611,1.615
									c-0.487-0.06-0.52-2.395-1.73-4.855c-1.149-2.49-2.941-3.987-2.681-4.402c0.119-0.187,0.774-0.05,1.639,0.543
									C329.448,123.206,330.473,124.294,331.167,125.747z"/>
							</g>
						</g>
					</g>
					<g>
						<g>
							<g>
								<path style="fill:#A65438;" d="M338.358,157.541c0.265,4.932-0.717,8.853-1.162,8.776c-0.485-0.068-0.281-3.949-0.539-8.688
									c-0.23-4.74-0.831-8.58-0.356-8.697C336.735,148.808,338.116,152.608,338.358,157.541z"/>
							</g>
						</g>
					</g>
					<g>
						<g>
							<g>
								<path style="fill:#A65438;" d="M183.593,149.229c0.914-2.288,2.219-3.852,2.624-3.625c0.417,0.231-0.173,2.082-1.042,4.259
									c-0.877,2.174-1.729,3.92-2.19,3.798C182.535,153.547,182.673,151.515,183.593,149.229z"/>
							</g>
						</g>
					</g>
					<g>
						<g>
							<g>
								<path style="fill:#A65438;" d="M196.875,233.447c0.966,1.774,1.414,3.395,1.001,3.62c-0.413,0.225-1.532-1.031-2.498-2.805
									s-1.414-3.395-1.001-3.62C194.791,230.417,195.909,231.673,196.875,233.447z"/>
							</g>
						</g>
					</g>
					<g>
						<g>
							<g>
								<path style="fill:#A65438;" d="M219.736,235.83c0.486,1.168,0.929,2.184,0.583,2.516c-0.324,0.33-1.521-0.365-2.151-1.847
									c-0.634-1.48-0.306-2.826,0.156-2.831C218.803,233.647,219.23,234.67,219.736,235.83z"/>
							</g>
						</g>
					</g>
					<g>
						<g>
							<g>
								<path style="fill:#A65438;" d="M215.488,247.772c0.764,1.174,1.471,2.161,1.189,2.549c-0.259,0.382-1.649-0.153-2.609-1.607
									c-0.965-1.451-0.916-2.94-0.463-3.029C214.071,245.575,214.705,246.611,215.488,247.772z"/>
							</g>
						</g>
					</g>
					<g>
						<g>
							<g>
								<path style="fill:#A65438;" d="M238.161,248.998c0.68,1.68,0.878,3.184,0.442,3.361c-0.436,0.177-1.341-1.042-2.022-2.721
									c-0.68-1.68-0.878-3.184-0.442-3.361C236.576,246.1,237.481,247.318,238.161,248.998z"/>
							</g>
						</g>
					</g>
					<g>
						<g>
							<g>
								<path style="fill:#A65438;" d="M284.915,236.424c0.12,1.98-0.757,3.419-1.188,3.26c-0.458-0.148-0.405-1.539-0.513-3.16
									c-0.081-1.623-0.296-2.998,0.142-3.199C283.765,233.115,284.804,234.443,284.915,236.424z"/>
							</g>
						</g>
					</g>
					<g>
						<g>
							<g>
								<path style="fill:#A65438;" d="M273.181,250.617c-0.148,0.77-0.516,1.403-0.889,1.76c-0.375,0.363-0.728,0.462-0.913,0.324
									c-0.37-0.306-0.07-1.28,0.128-2.404c0.23-1.117,0.311-2.134,0.767-2.282c0.222-0.061,0.514,0.162,0.729,0.637
									C273.219,249.122,273.328,249.846,273.181,250.617z"/>
							</g>
						</g>
					</g>
					<g>
						<g>
							<g>
								<path style="fill:#A65438;" d="M293.054,248.64c0.659-1.647,1.247-3.024,1.72-2.954c0.458,0.06,0.601,1.727-0.135,3.58
									c-0.729,1.857-1.973,2.975-2.348,2.706C291.897,251.7,292.409,250.292,293.054,248.64z"/>
							</g>
						</g>
					</g>
					<g>
						<g>
							<g>
								<path style="fill:#A65438;" d="M315.679,233.43c-0.357,1.51-1.016,2.775-1.636,3.57c-0.621,0.801-1.164,1.155-1.346,1.021
									c-0.39-0.297,0.719-2.312,1.323-4.981c0.649-2.659,0.554-4.957,1.035-5.049c0.223-0.038,0.552,0.52,0.75,1.514
									C316.006,230.494,316.033,231.92,315.679,233.43z"/>
							</g>
						</g>
					</g>
					<g>
						<g>
							<g>
								<path style="fill:#A65438;" d="M258.08,88.698c1.256,0.014,2.365,0.361,3.071,0.769c0.713,0.408,1.036,0.834,0.932,1.035
									c-0.236,0.425-1.934-0.102-4.02-0.1c-2.085-0.044-3.793,0.451-4.021,0.021c-0.1-0.203,0.231-0.623,0.952-1.017
									C255.709,89.013,256.824,88.687,258.08,88.698z"/>
							</g>
						</g>
					</g>
					<g>
						<g>
							<g>
								<path style="fill:#A65438;" d="M325.702,102.538c1.646-0.755,2.97-1.535,3.309-1.192c0.335,0.314-0.644,1.834-2.588,2.737
									c-1.94,0.911-3.735,0.685-3.76,0.227C322.618,103.83,324.067,103.316,325.702,102.538z"/>
							</g>
						</g>
					</g>
					<g>
						<g>
							<g>
								<path style="fill:#A65438;" d="M172.904,228.792c0.059,1.821-0.47,3.255-0.933,3.205c-0.473-0.048-0.714-1.458-0.77-3.152
									c-0.049-1.695,0.104-3.117,0.572-3.194C172.233,225.573,172.85,226.971,172.904,228.792z"/>
							</g>
						</g>
					</g>
					<g>
						<g>
							<g>
								<path style="fill:#A65438;" d="M184.548,256.486c0.99,2.146,1.798,3.935,1.407,4.212c-0.373,0.272-1.886-1.188-2.952-3.494
									c-1.075-2.302-1.216-4.4-0.767-4.509C182.699,252.575,183.545,254.345,184.548,256.486z"/>
							</g>
						</g>
					</g>
					<g>
						<g>
							<g>
								<path style="fill:#A65438;" d="M197.901,258.583c0.834,1.47,1.178,2.849,0.769,3.081c-0.409,0.232-1.417-0.771-2.251-2.24
									c-0.834-1.47-1.178-2.849-0.769-3.081C196.059,256.111,197.067,257.113,197.901,258.583z"/>
							</g>
						</g>
					</g>
					<g>
						<g>
							<g>
								<path style="fill:#A65438;" d="M307.674,261.06c1.297-1.649,2.128-3.215,2.594-3.082c0.446,0.101,0.272,2.176-1.246,4.125
									c-1.508,1.958-3.474,2.645-3.682,2.238C305.093,263.924,306.402,262.729,307.674,261.06z"/>
							</g>
						</g>
					</g>
					<g>
						<g>
							<g>
								<path style="fill:#A65438;" d="M327.999,258.224c0.612-1.109,1.258-2.003,1.717-1.875c0.449,0.12,0.492,1.389-0.221,2.691
									c-0.709,1.304-1.8,1.955-2.144,1.642C326.995,260.365,327.397,259.338,327.999,258.224z"/>
							</g>
						</g>
					</g>
					<g>
						<g>
							<g>
								<path style="fill:#A65438;" d="M327.474,239.041c1.285-3.001,2.221-5.52,2.692-5.415c0.449,0.09,0.23,2.913-1.123,6.081
									c-1.34,3.173-3.219,5.291-3.596,5.031C325.044,244.472,326.206,242.049,327.474,239.041z"/>
							</g>
						</g>
					</g>
					<g>
						<g>
							<g>
								<path style="fill:#A65438;" d="M343.648,225.475c0.303,1.785-0.186,3.232-0.647,3.192c-0.477-0.034-0.765-1.351-1.033-2.91
									c-0.255-1.562-0.412-2.9,0.028-3.088C342.418,222.48,343.352,223.689,343.648,225.475z"/>
							</g>
						</g>
					</g>
					<g>
						<g>
							<g>
								<path style="fill:#A65438;" d="M348.68,244.818c-0.178,2.779-1.358,4.772-1.779,4.595c-0.454-0.17-0.074-2.217,0.078-4.709
									c0.179-2.489,0.075-4.568,0.547-4.677C347.967,239.908,348.872,242.041,348.68,244.818z"/>
							</g>
						</g>
					</g>
					<g>
						<g>
							<g>
								<path style="fill:#A65438;" d="M318.549,271.231c1.521-1.658,2.71-3.112,3.136-2.887c0.411,0.204-0.192,2.191-1.875,4.034
									c-1.675,1.851-3.596,2.64-3.838,2.249C315.708,274.224,317.043,272.902,318.549,271.231z"/>
							</g>
						</g>
					</g>
					<g>
						<g>
							<g>
								<path style="fill:#A65438;" d="M327.539,142.652c0.194,1.198-0.005,2.313-0.332,3.028c-0.326,0.723-0.725,1.054-0.931,0.963
									c-0.438-0.209-0.081-1.825-0.419-3.716c-0.282-1.9-1.134-3.319-0.786-3.656c0.167-0.152,0.65,0.035,1.189,0.617
									C326.798,140.461,327.342,141.454,327.539,142.652z"/>
							</g>
						</g>
					</g>
					<g>
						<g>
							<g>
								<path style="fill:#A65438;" d="M195.726,117.973c1.337-1.963,2.735-3.34,3.124-3.075c0.389,0.265-0.379,2.071-1.716,4.034
									c-1.337,1.963-2.736,3.34-3.125,3.075C193.621,121.742,194.389,119.936,195.726,117.973z"/>
							</g>
						</g>
					</g>
					<g>
						<g>
							<g>
								<path style="fill:#A65438;" d="M289.967,89.681c1.382,0.474,2.425,1.373,2.942,2.16c0.529,0.793,0.59,1.402,0.397,1.508
									c-0.425,0.228-1.677-1.344-3.891-2.055c-2.186-0.792-4.138-0.315-4.335-0.755c-0.088-0.201,0.334-0.646,1.237-0.949
									C287.21,89.283,288.584,89.21,289.967,89.681z"/>
							</g>
						</g>
					</g>
					<g>
						<g>
							<g>
								<path style="fill:#A65438;" d="M228.161,90.726c1.024-0.37,2.027-0.445,2.731-0.345c0.71,0.098,1.118,0.34,1.109,0.569
									c-0.036,0.482-1.561,0.745-3.259,1.379c-1.71,0.602-3.049,1.378-3.386,1.031c-0.154-0.17,0.005-0.618,0.487-1.147
									C226.32,91.684,227.138,91.099,228.161,90.726z"/>
							</g>
						</g>
					</g>
				</g>
			</g>
			<g>
				<g>
					<path style="fill:#FFC7A1;" d="M323,187.75c-4,42.75-27.75,41.44-37.75,35.85c-10-5.6-13.9-11.6-24.2-10.6
						c-10.3,1-21.91-5.5-32.6,5.5c-3.53,3.62-7.55,6.36-11.73,7.89c-0.01,0-0.01,0-0.01,0c-8.48,3.13-17.59,1.32-24.46-7.89
						C182,204.75,178,153.25,205,129.25c0,0-7.68,12.75-7.47,20c0,0,14.92-4.5,30.7-3.5c15.77,1,42.29-3.5,55.53-16.5
						c0,0-3.45,12.97-9.72,17.24c0.83-0.16,27.57-5.73,34.46-20.99c0,0,1.31,1.38,3.16,4.2C316.74,137.5,325.94,156.36,323,187.75z"
						/>
					<path style="opacity:0.38;fill:#A9513B;" d="M311.66,129.7c-6.21,9.08-18.96,21.82-42.08,23.3c0,0,2.22-7.63,2.58-11.79
						c0,0-4.83,7.85-37.32,9.57s-40.09,9.85-41.34,38.79c-1.11,25.59,12.78,35.1,23.21,36.82c-8.48,3.13-17.59,1.32-24.46-7.89
						C182,204.75,178,153.25,205,129.25c0,0-7.68,12.75-7.47,20c0,0,14.92-4.5,30.7-3.5c15.77,1,42.29-3.5,55.53-16.5
						c0,0-3.45,12.97-9.72,17.24c0.83-0.16,27.57-5.73,34.46-20.99C308.5,125.5,309.81,126.88,311.66,129.7z"/>
					<path style="fill:none;stroke:#200808;stroke-width:3;stroke-linecap:round;stroke-linejoin:round;stroke-miterlimit:10;" d="
						M197.533,149.25c0,0,14.921-4.5,30.694-3.5c15.773,1,42.288-3.5,55.531-16.5c0,0-3.461,13-9.734,17.25
						c0,0,27.477-5.5,34.477-21c0,0,18.5,19.5,14.5,62.25s-27.75,41.44-37.75,35.845S271.349,212,261.049,213
						c-10.299,1-21.908-5.5-32.604,5.5c-10.695,11-25.945,13.75-36.195,0S178,153.25,205,129.25
						C205,129.25,197.315,142,197.533,149.25z"/>
				</g>
				<g>
					<g>
						<g>
							<path style="fill:#FFFFFF;" d="M221.69,214.68c-6.38,0.32-11.43-2.03-15.08-5.87c-12.57-13.16-8.75-43.72,14.15-42.88
								c10.38,0.38,17.12,7.95,19.69,17.02C244.35,196.67,238.71,213.81,221.69,214.68z"/>
							<path style="opacity:0.38;fill:#949599;" d="M240.45,182.95c-0.07,0.02-0.11,0.03-0.11,0.03s-4.53-13.5-22.58-8.88
								c-16.05,4.1-16.81,24.98-11.15,34.71c-12.57-13.16-8.75-43.72,14.15-42.88C231.14,166.31,237.88,173.88,240.45,182.95z"/>
							<path style="fill:#200808;" d="M205.092,206.934c0,0-8.892-16.206-0.393-29.339c9.359-14.462,31.859-9.188,35.645,5.387
								c0,0-1.245-13.853-16.248-18.308C209.394,160.309,187.445,177.462,205.092,206.934z"/>
							<path style="fill:#6B321F;" d="M227.522,181.029c5.952,1.288,11.053,5.979,11.121,14.417
								c0.065,7.993-6.733,15.256-14.372,15.38c-7.638,0.124-15.12-4.233-15.246-14.877
								C208.888,184.466,218.865,179.155,227.522,181.029z"/>
							<path style="fill:#200808;" d="M222.851,185.332c10.812-0.695,12.139,19.932,0.954,20.651
								C214.111,206.607,212.039,186.028,222.851,185.332z"/>
							<path style="fill:#FFFFFF;" d="M227.953,185.345c4.217-0.271,3.786,8.225,0.38,8.444S224.223,185.585,227.953,185.345z"/>
						</g>
						<g>
							<path style="fill:#FFFFFF;" d="M290.81,214.68c-6.93-0.35-11.97-3.4-15.24-7.82v-0.01c-10.12-13.62-3.51-40.2,16.17-40.92
								c11.41-0.42,18.09,6.96,20.35,16.1C315.71,196.57,308.17,215.56,290.81,214.68z"/>
							<path style="opacity:0.38;fill:#949599;" d="M312.09,182.03c-1.11,0.5-1.92,0.68-1.92,0.68s-4.54-13.51-22.59-8.89
								c-15.16,3.88-16.68,22.75-12.01,33.03c-10.12-13.62-3.51-40.2,16.17-40.92C303.15,165.51,309.83,172.89,312.09,182.03z"/>
							<path style="fill:#200808;" d="M307.41,206.934c0,0,8.892-16.206,0.393-29.339c-9.359-14.462-31.859-9.188-35.645,5.387
								c0,0,1.244-13.853,16.248-18.308C303.108,160.309,325.057,177.462,307.41,206.934z"/>
							<path style="fill:#6B321F;" d="M292.522,181.029c5.952,1.288,11.053,5.979,11.121,14.417
								c0.065,7.993-6.733,15.256-14.372,15.38c-7.638,0.124-15.119-4.233-15.246-14.877
								C273.888,184.466,283.865,179.155,292.522,181.029z"/>
							<path style="fill:#200808;" d="M288.023,185.332c10.812-0.695,12.139,19.932,0.954,20.651
								C279.283,206.607,277.211,186.028,288.023,185.332z"/>
							<path style="fill:#FFFFFF;" d="M292.953,185.345c4.217-0.271,3.786,8.225,0.38,8.444S289.223,185.585,292.953,185.345z"/>
						</g>
					</g>
					<g>
						<g>
							<path style="fill:#200808;" d="M278.333,155.333c0.718,1.136,8.961,0.833,14.731,1.667
								c5.769,0.833,15.936,4.167,17.436,3.167s-1.697-11.386-5.93-14.326c-4.458-3.096-23.904-5.174-26.237-4.507
								C276,142,276.333,152.167,278.333,155.333z"/>
							<path style="fill:#200808;" d="M233.215,155.333c-0.717,1.136-8.961,0.833-14.731,1.667
								c-5.769,0.833-15.936,4.167-17.436,3.167s1.697-11.386,5.93-14.326c4.458-3.096,23.904-5.174,26.237-4.507
								C235.549,142,235.215,152.167,233.215,155.333z"/>
						</g>
					</g>
					<g>
						<path style="fill:#FFC7A1;" d="M247.333,206.167c0,0,4.833-6.5,12-5.5c7.167,1,9.667,7.333,7.5,9.333
							c-2.167,2-12.333,3-18.333,0"/>
						<g>
							<path style="fill:#200808;" d="M247.333,206.167c0.969-1.734,2.371-3.232,4.022-4.453c0.827-0.616,1.76-1.09,2.726-1.521
								c0.986-0.381,2.032-0.663,3.111-0.762c2.173-0.234,4.342,0.168,6.37,1.062c1.997,0.961,3.778,2.524,4.831,4.659
								c0.492,1.074,0.839,2.31,0.593,3.735c-0.128,0.701-0.455,1.461-1.05,2.056c-0.278,0.288-0.58,0.46-0.877,0.667
								c-0.274,0.139-0.552,0.27-0.831,0.395c-2.143,0.755-4.16,0.988-6.206,0.991c-2.034,0.025-4.055-0.2-6.021-0.65
								c-1.951-0.485-3.885-1.183-5.501-2.345c1.9,0.555,3.8,0.82,5.707,0.886c1.901,0.091,3.802-0.012,5.664-0.228
								c1.84-0.252,3.741-0.58,5.238-1.266c0.158-0.094,0.315-0.182,0.478-0.262c0.088-0.089,0.226-0.157,0.274-0.229
								c0.087-0.108,0.174-0.275,0.207-0.535c0.097-0.51-0.056-1.268-0.392-1.945c-1.313-2.878-4.909-4.609-8.359-4.662
								c-1.744-0.031-3.532,0.415-5.215,1.214C250.401,203.749,248.808,204.859,247.333,206.167z"/>
						</g>
						<g>
							<path style="fill:#200808;" d="M262.333,180.66c-0.558,1.836-1.208,3.527-1.809,5.193c-0.604,1.655-1.159,3.295-1.45,4.838
								c-0.266,1.436-0.11,3.061,0.238,4.718c0.348,1.662,0.888,3.347,1.521,5.154c-1.629-1.049-2.873-2.601-3.747-4.37
								c-0.849-1.766-1.354-3.853-0.966-6.024c0.393-2.042,1.258-3.805,2.312-5.387C259.506,183.21,260.761,181.781,262.333,180.66z
								"/>
						</g>
					</g>
					<g style="opacity:0.38;">
						<g>
							<path style="fill:#A9513B;" d="M200.673,219.203c0-6.9,16.377-6.088,16.377,0
								C217.05,225.291,200.673,226.102,200.673,219.203z"/>
							<path style="fill:#A9513B;" d="M289.932,219.203c0-6.9,16.377-6.088,16.377,0
								C306.308,225.291,289.932,226.102,289.932,219.203z"/>
						</g>
					</g>
					<g>
						<path style="fill:#8E2F2F;" d="M270.87,220.41c0,0-0.58,6.48-4.62,11.21c-2.33,2.73-5.8,4.88-10.98,4.88
							c-4.94,0-8.33-1.95-10.65-4.49c-4.34-4.76-4.95-11.6-4.95-11.6s0.15,0.03,0.43,0.09c2.79,0.59,18.69,3.69,29.48,0.35
							C270.02,220.71,270.45,220.57,270.87,220.41z"/>
						
							<path style="fill:none;stroke:#200808;stroke-width:2.5;stroke-linecap:round;stroke-linejoin:round;stroke-miterlimit:10;" d="
							M270.87,220.41c0,0-0.58,6.48-4.62,11.21c-2.33,2.73-5.8,4.88-10.98,4.88c-4.94,0-8.33-1.95-10.65-4.49
							c-4.34-4.76-4.95-11.6-4.95-11.6s0.15,0.03,0.43,0.09c2.79,0.59,18.69,3.69,29.48,0.35
							C270.02,220.71,270.45,220.57,270.87,220.41z"/>
						<path style="fill:#FFFFFF;" d="M269.58,220.85c-2.6,2.6-7.27,5.84-14.34,5.84c-8.57,0-13.22-3.99-15.14-6.19
							C242.89,221.09,258.79,224.19,269.58,220.85z"/>
						
							<path style="fill:none;stroke:#200808;stroke-width:2.5;stroke-linecap:round;stroke-linejoin:round;stroke-miterlimit:10;" d="
							M269.58,220.85c-2.6,2.6-7.27,5.84-14.34,5.84c-8.57,0-13.22-3.99-15.14-6.19C242.89,221.09,258.79,224.19,269.58,220.85z"/>
						<path style="fill:#EA5A59;" d="M266.25,231.62c-2.33,2.73-5.8,4.88-10.98,4.88c-4.94,0-8.33-1.95-10.65-4.49
							C247.76,229.85,255.33,226.25,266.25,231.62z"/>
						
							<path style="fill:none;stroke:#200808;stroke-width:2.5;stroke-linecap:round;stroke-linejoin:round;stroke-miterlimit:10;" d="
							M266.25,231.62c-2.33,2.73-5.8,4.88-10.98,4.88c-4.94,0-8.33-1.95-10.65-4.49C247.76,229.85,255.33,226.25,266.25,231.62z"/>
						<g>
							<path style="fill:#200808;" d="M248.059,243c1.378,0.363,2.572,0.667,3.743,0.865c1.162,0.206,2.268,0.314,3.369,0.288
								c1.094-0.043,2.209-0.087,3.365-0.352c0.6-0.057,1.165-0.279,1.81-0.371c0.633-0.132,1.246-0.343,1.987-0.43
								c-0.341,0.621-0.77,1.185-1.252,1.707c-0.524,0.458-1.046,0.974-1.691,1.294c-1.226,0.768-2.722,1.116-4.2,1.152
								c-1.489,0.029-2.971-0.373-4.224-1.089C249.72,245.345,248.642,244.322,248.059,243z"/>
						</g>
					</g>
				</g>
				<g>
					<path style="fill:#FFC7A1;" d="M177,214.71c-0.09,0.02-0.19,0.04-0.29,0.07c-4.69,0.96-15.84,0.52-21.71-14.22
						c-6-15.06,5.25-33.25,23.25-23.91c0.69,0.35,1.07,1.08,1.27,2.11c0.73,3.74-1,11.53-0.02,20.74
						C180.75,211.25,181.5,213.67,177,214.71z"/>
					<path style="opacity:0.38;fill:#A9513B;" d="M172.96,211.59c1.21,1.03,2.54,2.07,3.75,3.19c-4.69,0.96-15.84,0.52-21.71-14.22
						c-6-15.06,5.25-33.25,23.25-23.91c0.69,0.35,1.07,1.08,1.27,2.11c-3.37-0.78-6.69-0.86-10.52,2.49
						c-4.35,3.81-6.03,10.15-4.97,15.84C165.08,202.78,168.57,207.82,172.96,211.59z"/>
					<path style="fill:none;stroke:#200808;stroke-width:3;stroke-linecap:round;stroke-linejoin:round;stroke-miterlimit:10;" d="
						M178.25,176.655c3.156,1.638,0,11.095,1.25,22.845s2,14.169-2.5,15.209c-4.5,1.041-16,0.915-22-14.147
						C149,185.5,160.25,167.31,178.25,176.655z"/>
					<g>
						<path style="fill:#200808;" d="M160.5,186.75c0.596-1.919,2.374-3.479,4.43-4.042c0.511-0.169,1.036-0.239,1.566-0.33
							c0.525-0.024,1.065-0.086,1.587-0.041l0.793,0.037l0.839,0.159c0.576,0.069,1.093,0.359,1.637,0.578
							c2.058,1.177,3.345,3.238,4.019,5.245c0.366,1.016,0.6,2.051,0.78,3.089c0.174,1.052,0.295,2.052,0.293,3.182
							c-0.002,0.792-0.646,1.433-1.439,1.431c-0.505-0.001-0.949-0.264-1.204-0.66l-0.051-0.081
							c-0.672-1.063-1.573-2.181-2.525-3.013c-0.961-0.823-2.012-1.519-2.984-1.565c-0.239,0.004-0.484-0.05-0.716,0.033
							c-0.118,0.024-0.236,0.044-0.357,0.06c-0.117,0.044-0.232,0.109-0.35,0.158l-0.358,0.15l-0.342,0.253
							c-0.231,0.165-0.475,0.317-0.663,0.514c-0.787,0.752-1.268,1.821-1.323,3.032c-0.161,2.435,1.085,5.095,3.056,6.891
							c1.977,1.844,4.878,2.664,7.811,2.171c-1.351,0.583-2.885,0.905-4.436,0.754c-1.543-0.148-3.09-0.692-4.398-1.605
							c-1.313-0.9-2.457-2.09-3.252-3.51c-0.806-1.405-1.357-3.026-1.362-4.763c-0.033-1.72,0.6-3.589,1.866-4.941
							c0.306-0.352,0.662-0.623,1.027-0.886l0.545-0.398l0.642-0.309c0.217-0.097,0.43-0.204,0.655-0.285l0.721-0.161
							c0.48-0.135,0.975-0.1,1.468-0.091c0.495,0.006,0.944,0.165,1.415,0.26c0.422,0.168,0.869,0.322,1.255,0.535
							c0.779,0.419,1.476,0.931,2.07,1.497c1.225,1.136,2.165,2.341,3.033,3.77l-2.694,0.69c0.011-1.755-0.146-3.702-0.647-5.413
							c-0.468-1.737-1.287-3.328-2.614-4.265c-0.358-0.175-0.677-0.459-1.09-0.548l-0.597-0.206l-0.68-0.122
							c-0.909-0.153-1.833-0.216-2.74-0.098C163.388,184.115,161.576,185.052,160.5,186.75z"/>
					</g>
				</g>
				<g>
					<path style="fill:#FFC7A1;" d="M352.72,200.56c-4.39,11.03-11.73,14.05-17.11,14.47c-1.98,0.15-3.68-0.04-4.89-0.32
						c-4.5-1.04-3.75-3.46-2.5-15.21s-1.9-21.21,1.25-22.85c9.66-5.01,17.37-2.1,21.53,4.01
						C354.58,185.93,355.5,193.58,352.72,200.56z"/>
					<path style="opacity:0.38;fill:#A9513B;" d="M335.98,198.18c0.13,5.13,1,10.3,0.01,15.33c-0.1,0.51-0.22,1.02-0.38,1.52
						c-1.98,0.15-3.68-0.04-4.89-0.32c-4.5-1.04-3.75-3.46-2.5-15.21s-1.9-21.21,1.25-22.85c9.66-5.01,17.37-2.1,21.53,4.01
						C341.37,181.07,335.69,186.65,335.98,198.18z"/>
					<path style="fill:none;stroke:#200808;stroke-width:3;stroke-linecap:round;stroke-linejoin:round;stroke-miterlimit:10;" d="
						M329.473,176.655c-3.156,1.638,0,11.095-1.25,22.845c-1.25,11.75-2,14.169,2.5,15.209c4.5,1.041,16,0.915,22-14.147
						C358.723,185.5,347.473,167.31,329.473,176.655z"/>
					<g>
						<path style="fill:#200808;" d="M347.223,186.75c-1.076-1.698-2.888-2.635-4.687-2.845c-0.907-0.118-1.831-0.054-2.74,0.098
							l-0.68,0.122l-0.596,0.206c-0.413,0.089-0.732,0.373-1.09,0.548c-1.327,0.937-2.146,2.529-2.614,4.265
							c-0.501,1.711-0.658,3.658-0.647,5.413l-2.694-0.69c0.868-1.429,1.808-2.635,3.033-3.77c0.594-0.566,1.291-1.077,2.07-1.497
							c0.386-0.213,0.833-0.368,1.255-0.535c0.471-0.094,0.92-0.254,1.415-0.26c0.493-0.009,0.988-0.044,1.468,0.091l0.721,0.161
							c0.225,0.082,0.437,0.188,0.655,0.285l0.642,0.309l0.545,0.398c0.365,0.263,0.721,0.534,1.027,0.886
							c1.267,1.351,1.9,3.22,1.866,4.941c-0.005,1.736-0.556,3.357-1.362,4.763c-0.795,1.42-1.939,2.611-3.253,3.51
							c-1.307,0.913-2.855,1.458-4.398,1.605c-1.551,0.151-3.085-0.171-4.436-0.754c2.933,0.493,5.834-0.327,7.811-2.171
							c1.971-1.796,3.217-4.456,3.056-6.891c-0.055-1.211-0.536-2.28-1.323-3.032c-0.187-0.197-0.432-0.349-0.663-0.514
							l-0.342-0.253l-0.358-0.15c-0.118-0.049-0.233-0.114-0.35-0.158c-0.121-0.016-0.239-0.036-0.357-0.06
							c-0.232-0.083-0.477-0.029-0.716-0.033c-0.971,0.047-2.023,0.742-2.984,1.565c-0.952,0.831-1.853,1.949-2.525,3.013
							l-0.046,0.073c-0.423,0.67-1.31,0.869-1.979,0.446c-0.427-0.27-0.663-0.738-0.668-1.209c-0.003-1.13,0.119-2.13,0.293-3.182
							c0.18-1.038,0.414-2.072,0.78-3.089c0.674-2.007,1.961-4.068,4.019-5.245c0.544-0.219,1.061-0.509,1.637-0.578l0.839-0.159
							l0.793-0.037c0.523-0.045,1.063,0.018,1.587,0.041c0.53,0.091,1.055,0.161,1.566,0.33
							C344.85,183.271,346.627,184.831,347.223,186.75z"/>
					</g>
				</g>
			</g>
		</g>
	</g>
</g>
</svg>
