<svg xmlns="http://www.w3.org/2000/svg" xmlns:xlink="http://www.w3.org/1999/xlink" width="140" zoomAndPan="magnify" viewBox="0 0 104.88 104.999996" height="140" preserveAspectRatio="xMidYMid meet" version="1.0"><defs><clipPath id="58144b8118"><path d="M 0 0.0585938 L 104.761719 0.0585938 L 104.761719 104.9375 L 0 104.9375 Z M 0 0.0585938 " clip-rule="nonzero"/></clipPath><clipPath id="f1dd155d84"><path d="M 0 0.0585938 L 104.496094 0.0585938 L 104.496094 104.554688 L 0 104.554688 Z M 0 0.0585938 " clip-rule="nonzero"/></clipPath><clipPath id="c70afa703e"><rect x="0" width="105" y="0" height="105"/></clipPath></defs><g clip-path="url(#58144b8118)"><path fill="#ffffff" d="M 0 0.0585938 L 104.878906 0.0585938 L 104.878906 104.941406 L 0 104.941406 Z M 0 0.0585938 " fill-opacity="1" fill-rule="nonzero"/><g transform="matrix(1, 0, 0, 1, 0, 0.000000000000007029)"><g clip-path="url(#c70afa703e)"><g clip-path="url(#f1dd155d84)"><path fill="#ffffff" d="M 0 0.0585938 L 104.496094 0.0585938 L 104.496094 104.554688 L 0 104.554688 Z M 0 0.0585938 " fill-opacity="1" fill-rule="nonzero"/></g><path stroke-linecap="butt" transform="matrix(2.548655, 0, 0, 2.548655, 0.000000000000010646, 0.059997)" fill-opacity="1" fill="#ffffff" fill-rule="nonzero" stroke-linejoin="miter" d="M 2.000136 2.499236 L 8.999846 2.499236 M 11.999284 2.499236 L 13.000119 2.499236 M 13.99942 2.499236 L 15.999556 2.499236 M 17.000391 2.499236 L 19.000527 2.499236 M 19.999829 2.499236 L 21.000663 2.499236 M 21.999965 2.499236 L 22.999267 2.499236 M 24.000101 2.499236 L 24.999403 2.499236 M 26.000237 2.499236 L 26.999539 2.499236 M 30.000509 2.499236 L 30.999811 2.499236 M 32.000646 2.499236 L 39.000356 2.499236 M 2.000136 3.500071 L 2.999438 3.500071 M 8.000545 3.500071 L 8.999846 3.500071 M 10.999982 3.500071 L 13.000119 3.500071 M 15.000255 3.500071 L 21.999965 3.500071 M 22.999267 3.500071 L 24.999403 3.500071 M 28.000373 3.500071 L 30.999811 3.500071 M 32.000646 3.500071 L 32.999947 3.500071 M 37.999521 3.500071 L 39.000356 3.500071 M 2.000136 4.499373 L 2.999438 4.499373 M 4.000272 4.499373 L 6.99971 4.499373 M 8.000545 4.499373 L 8.999846 4.499373 M 10.000681 4.499373 L 10.999982 4.499373 M 15.999556 4.499373 L 17.000391 4.499373 M 17.999693 4.499373 L 19.000527 4.499373 M 21.000663 4.499373 L 24.999403 4.499373 M 26.000237 4.499373 L 26.999539 4.499373 M 32.000646 4.499373 L 32.999947 4.499373 M 33.999249 4.499373 L 37.00022 4.499373 M 37.999521 4.499373 L 39.000356 4.499373 M 2.000136 5.500207 L 2.999438 5.500207 M 4.000272 5.500207 L 6.99971 5.500207 M 8.000545 5.500207 L 8.999846 5.500207 M 10.000681 5.500207 L 11.999284 5.500207 M 13.000119 5.500207 L 13.99942 5.500207 M 17.999693 5.500207 L 19.999829 5.500207 M 21.000663 5.500207 L 21.999965 5.500207 M 26.000237 5.500207 L 30.999811 5.500207 M 32.000646 5.500207 L 32.999947 5.500207 M 33.999249 5.500207 L 37.00022 5.500207 M 37.999521 5.500207 L 39.000356 5.500207 M 2.000136 6.499509 L 2.999438 6.499509 M 4.000272 6.499509 L 6.99971 6.499509 M 8.000545 6.499509 L 8.999846 6.499509 M 10.000681 6.499509 L 10.999982 6.499509 M 13.000119 6.499509 L 13.99942 6.499509 M 15.000255 6.499509 L 15.999556 6.499509 M 17.000391 6.499509 L 17.999693 6.499509 M 19.999829 6.499509 L 22.999267 6.499509 M 24.999403 6.499509 L 26.000237 6.499509 M 26.999539 6.499509 L 28.000373 6.499509 M 30.000509 6.499509 L 30.999811 6.499509 M 32.000646 6.499509 L 32.999947 6.499509 M 33.999249 6.499509 L 37.00022 6.499509 M 37.999521 6.499509 L 39.000356 6.499509 M 2.000136 7.500343 L 2.999438 7.500343 M 8.000545 7.500343 L 8.999846 7.500343 M 10.000681 7.500343 L 10.999982 7.500343 M 13.000119 7.500343 L 15.000255 7.500343 M 15.999556 7.500343 L 17.999693 7.500343 M 19.999829 7.500343 L 21.000663 7.500343 M 21.999965 7.500343 L 22.999267 7.500343 M 24.000101 7.500343 L 24.999403 7.500343 M 26.999539 7.500343 L 28.000373 7.500343 M 28.999675 7.500343 L 30.999811 7.500343 M 32.000646 7.500343 L 32.999947 7.500343 M 37.999521 7.500343 L 39.000356 7.500343 M 2.000136 8.499645 L 8.999846 8.499645 M 10.000681 8.499645 L 10.999982 8.499645 M 11.999284 8.499645 L 13.000119 8.499645 M 13.99942 8.499645 L 15.000255 8.499645 M 15.999556 8.499645 L 17.000391 8.499645 M 17.999693 8.499645 L 19.000527 8.499645 M 19.999829 8.499645 L 21.000663 8.499645 M 21.999965 8.499645 L 22.999267 8.499645 M 24.000101 8.499645 L 24.999403 8.499645 M 26.000237 8.499645 L 26.999539 8.499645 M 28.000373 8.499645 L 28.999675 8.499645 M 30.000509 8.499645 L 30.999811 8.499645 M 32.000646 8.499645 L 39.000356 8.499645 M 10.000681 9.500479 L 11.999284 9.500479 M 13.99942 9.500479 L 15.000255 9.500479 M 15.999556 9.500479 L 17.000391 9.500479 M 21.000663 9.500479 L 21.999965 9.500479 M 24.999403 9.500479 L 26.000237 9.500479 M 2.000136 10.499781 L 2.999438 10.499781 M 4.000272 10.499781 L 8.999846 10.499781 M 10.999982 10.499781 L 13.000119 10.499781 M 15.000255 10.499781 L 15.999556 10.499781 M 17.000391 10.499781 L 17.999693 10.499781 M 19.999829 10.499781 L 21.000663 10.499781 M 21.999965 10.499781 L 30.000509 10.499781 M 32.000646 10.499781 L 37.00022 10.499781 M 2.999438 11.500615 L 6.000408 11.500615 M 11.999284 11.500615 L 13.000119 11.500615 M 15.999556 11.500615 L 19.000527 11.500615 M 30.000509 11.500615 L 30.999811 11.500615 M 32.000646 11.500615 L 33.999249 11.500615 M 35.000083 11.500615 L 37.999521 11.500615 M 2.999438 12.499917 L 4.999574 12.499917 M 8.000545 12.499917 L 11.999284 12.499917 M 15.999556 12.499917 L 17.000391 12.499917 M 21.999965 12.499917 L 22.999267 12.499917 M 24.000101 12.499917 L 26.999539 12.499917 M 28.999675 12.499917 L 32.999947 12.499917 M 33.999249 12.499917 L 35.000083 12.499917 M 37.00022 12.499917 L 39.000356 12.499917 M 2.999438 13.500752 L 6.000408 13.500752 M 6.99971 13.500752 L 8.000545 13.500752 M 8.999846 13.500752 L 10.999982 13.500752 M 11.999284 13.500752 L 13.000119 13.500752 M 13.99942 13.500752 L 15.000255 13.500752 M 17.999693 13.500752 L 19.000527 13.500752 M 22.999267 13.500752 L 26.000237 13.500752 M 28.000373 13.500752 L 30.000509 13.500752 M 30.999811 13.500752 L 32.000646 13.500752 M 37.999521 13.500752 L 39.000356 13.500752 M 2.000136 14.500053 L 2.999438 14.500053 M 6.000408 14.500053 L 6.99971 14.500053 M 8.000545 14.500053 L 10.000681 14.500053 M 11.999284 14.500053 L 13.000119 14.500053 M 13.99942 14.500053 L 17.000391 14.500053 M 17.999693 14.500053 L 19.999829 14.500053 M 21.999965 14.500053 L 22.999267 14.500053 M 24.000101 14.500053 L 39.000356 14.500053 M 2.000136 15.499355 L 4.000272 15.499355 M 4.999574 15.499355 L 8.000545 15.499355 M 8.999846 15.499355 L 13.000119 15.499355 M 13.99942 15.499355 L 15.000255 15.499355 M 17.999693 15.499355 L 26.000237 15.499355 M 26.999539 15.499355 L 28.000373 15.499355 M 30.000509 15.499355 L 32.000646 15.499355 M 32.999947 15.499355 L 33.999249 15.499355 M 2.999438 16.500189 L 4.999574 16.500189 M 6.000408 16.500189 L 6.99971 16.500189 M 8.000545 16.500189 L 8.999846 16.500189 M 11.999284 16.500189 L 15.000255 16.500189 M 15.999556 16.500189 L 17.999693 16.500189 M 19.000527 16.500189 L 19.999829 16.500189 M 21.999965 16.500189 L 24.000101 16.500189 M 28.000373 16.500189 L 30.000509 16.500189 M 30.999811 16.500189 L 32.000646 16.500189 M 32.999947 16.500189 L 35.999385 16.500189 M 37.00022 16.500189 L 39.000356 16.500189 M 4.000272 17.499491 L 6.000408 17.499491 M 6.99971 17.499491 L 8.000545 17.499491 M 8.999846 17.499491 L 10.999982 17.499491 M 11.999284 17.499491 L 13.000119 17.499491 M 13.99942 17.499491 L 15.999556 17.499491 M 17.999693 17.499491 L 21.000663 17.499491 M 21.999965 17.499491 L 26.999539 17.499491 M 30.000509 17.499491 L 35.000083 17.499491 M 37.00022 17.499491 L 37.999521 17.499491 M 2.999438 18.500326 L 4.000272 18.500326 M 4.999574 18.500326 L 6.000408 18.500326 M 8.000545 18.500326 L 10.000681 18.500326 M 10.999982 18.500326 L 13.000119 18.500326 M 15.000255 18.500326 L 15.999556 18.500326 M 17.000391 18.500326 L 19.000527 18.500326 M 22.999267 18.500326 L 24.000101 18.500326 M 26.000237 18.500326 L 28.999675 18.500326 M 30.000509 18.500326 L 30.999811 18.500326 M 32.000646 18.500326 L 35.000083 18.500326 M 35.999385 18.500326 L 37.999521 18.500326 M 2.000136 19.499627 L 2.999438 19.499627 M 4.000272 19.499627 L 8.000545 19.499627 M 13.000119 19.499627 L 15.000255 19.499627 M 17.000391 19.499627 L 17.999693 19.499627 M 19.000527 19.499627 L 21.000663 19.499627 M 21.999965 19.499627 L 24.999403 19.499627 M 26.000237 19.499627 L 26.999539 19.499627 M 28.000373 19.499627 L 28.999675 19.499627 M 30.000509 19.499627 L 32.000646 19.499627 M 37.00022 19.499627 L 37.999521 19.499627 M 2.000136 20.500462 L 4.000272 20.500462 M 6.000408 20.500462 L 8.999846 20.500462 M 10.000681 20.500462 L 13.000119 20.500462 M 13.99942 20.500462 L 15.999556 20.500462 M 17.000391 20.500462 L 19.999829 20.500462 M 21.000663 20.500462 L 21.999965 20.500462 M 26.999539 20.500462 L 30.000509 20.500462 M 30.999811 20.500462 L 33.999249 20.500462 M 35.999385 20.500462 L 39.000356 20.500462 M 2.000136 21.499763 L 4.000272 21.499763 M 13.99942 21.499763 L 15.999556 21.499763 M 17.000391 21.499763 L 17.999693 21.499763 M 19.999829 21.499763 L 24.000101 21.499763 M 24.999403 21.499763 L 26.000237 21.499763 M 28.000373 21.499763 L 30.000509 21.499763 M 30.999811 21.499763 L 32.000646 21.499763 M 37.999521 21.499763 L 39.000356 21.499763 M 4.999574 22.500598 L 8.999846 22.500598 M 10.000681 22.500598 L 10.999982 22.500598 M 13.000119 22.500598 L 15.000255 22.500598 M 17.000391 22.500598 L 17.999693 22.500598 M 19.000527 22.500598 L 19.999829 22.500598 M 21.000663 22.500598 L 21.999965 22.500598 M 24.000101 22.500598 L 28.999675 22.500598 M 30.999811 22.500598 L 32.999947 22.500598 M 33.999249 22.500598 L 35.000083 22.500598 M 35.999385 22.500598 L 37.00022 22.500598 M 2.000136 23.4999 L 2.999438 23.4999 M 4.999574 23.4999 L 6.99971 23.4999 M 8.999846 23.4999 L 10.000681 23.4999 M 11.999284 23.4999 L 13.99942 23.4999 M 15.999556 23.4999 L 17.000391 23.4999 M 17.999693 23.4999 L 19.000527 23.4999 M 21.000663 23.4999 L 22.999267 23.4999 M 24.999403 23.4999 L 26.000237 23.4999 M 28.000373 23.4999 L 28.999675 23.4999 M 30.000509 23.4999 L 32.000646 23.4999 M 35.000083 23.4999 L 35.999385 23.4999 M 37.00022 23.4999 L 37.999521 23.4999 M 6.000408 24.500734 L 10.000681 24.500734 M 10.999982 24.500734 L 11.999284 24.500734 M 13.99942 24.500734 L 19.000527 24.500734 M 19.999829 24.500734 L 21.000663 24.500734 M 24.000101 24.500734 L 24.999403 24.500734 M 26.000237 24.500734 L 30.999811 24.500734 M 32.000646 24.500734 L 35.999385 24.500734 M 37.999521 24.500734 L 39.000356 24.500734 M 2.000136 25.500036 L 8.000545 25.500036 M 10.000681 25.500036 L 13.000119 25.500036 M 15.000255 25.500036 L 19.000527 25.500036 M 21.000663 25.500036 L 22.999267 25.500036 M 24.999403 25.500036 L 26.000237 25.500036 M 28.999675 25.500036 L 30.000509 25.500036 M 32.999947 25.500036 L 35.000083 25.500036 M 37.00022 25.500036 L 39.000356 25.500036 M 4.000272 26.499337 L 4.999574 26.499337 M 6.99971 26.499337 L 15.000255 26.499337 M 17.000391 26.499337 L 17.999693 26.499337 M 19.999829 26.499337 L 26.999539 26.499337 M 28.000373 26.499337 L 28.999675 26.499337 M 30.000509 26.499337 L 32.999947 26.499337 M 33.999249 26.499337 L 35.000083 26.499337 M 35.999385 26.499337 L 37.00022 26.499337 M 37.999521 26.499337 L 39.000356 26.499337 M 2.000136 27.500172 L 6.000408 27.500172 M 8.999846 27.500172 L 10.000681 27.500172 M 11.999284 27.500172 L 13.000119 27.500172 M 13.99942 27.500172 L 19.000527 27.500172 M 22.999267 27.500172 L 24.000101 27.500172 M 24.999403 27.500172 L 26.000237 27.500172 M 30.000509 27.500172 L 33.999249 27.500172 M 35.000083 27.500172 L 35.999385 27.500172 M 2.000136 28.499474 L 2.999438 28.499474 M 4.000272 28.499474 L 4.999574 28.499474 M 6.000408 28.499474 L 13.99942 28.499474 M 15.999556 28.499474 L 17.000391 28.499474 M 21.999965 28.499474 L 24.999403 28.499474 M 26.000237 28.499474 L 28.000373 28.499474 M 28.999675 28.499474 L 33.999249 28.499474 M 35.999385 28.499474 L 39.000356 28.499474 M 2.000136 29.500308 L 2.999438 29.500308 M 4.000272 29.500308 L 6.000408 29.500308 M 6.99971 29.500308 L 8.000545 29.500308 M 8.999846 29.500308 L 11.999284 29.500308 M 13.99942 29.500308 L 17.000391 29.500308 M 17.999693 29.500308 L 19.000527 29.500308 M 19.999829 29.500308 L 21.000663 29.500308 M 22.999267 29.500308 L 26.999539 29.500308 M 28.999675 29.500308 L 32.000646 29.500308 M 32.999947 29.500308 L 35.000083 29.500308 M 37.00022 29.500308 L 39.000356 29.500308 M 2.000136 30.49961 L 2.999438 30.49961 M 4.999574 30.49961 L 6.000408 30.49961 M 6.99971 30.49961 L 8.999846 30.49961 M 13.000119 30.49961 L 13.99942 30.49961 M 17.999693 30.49961 L 19.999829 30.49961 M 24.000101 30.49961 L 24.999403 30.49961 M 26.000237 30.49961 L 28.999675 30.49961 M 30.000509 30.49961 L 37.00022 30.49961 M 37.999521 30.49961 L 39.000356 30.49961 M 10.000681 31.500444 L 11.999284 31.500444 M 13.000119 31.500444 L 17.000391 31.500444 M 17.999693 31.500444 L 24.000101 31.500444 M 24.999403 31.500444 L 28.000373 31.500444 M 28.999675 31.500444 L 30.999811 31.500444 M 33.999249 31.500444 L 35.999385 31.500444 M 2.000136 32.499746 L 8.999846 32.499746 M 13.000119 32.499746 L 15.000255 32.499746 M 15.999556 32.499746 L 19.999829 32.499746 M 21.999965 32.499746 L 24.000101 32.499746 M 26.999539 32.499746 L 28.999675 32.499746 M 30.000509 32.499746 L 30.999811 32.499746 M 32.000646 32.499746 L 32.999947 32.499746 M 33.999249 32.499746 L 35.000083 32.499746 M 35.999385 32.499746 L 39.000356 32.499746 M 2.000136 33.50058 L 2.999438 33.50058 M 8.000545 33.50058 L 8.999846 33.50058 M 10.000681 33.50058 L 15.999556 33.50058 M 19.000527 33.50058 L 21.000663 33.50058 M 22.999267 33.50058 L 24.999403 33.50058 M 30.000509 33.50058 L 30.999811 33.50058 M 33.999249 33.50058 L 35.999385 33.50058 M 37.999521 33.50058 L 39.000356 33.50058 M 2.000136 34.499882 L 2.999438 34.499882 M 4.000272 34.499882 L 6.99971 34.499882 M 8.000545 34.499882 L 8.999846 34.499882 M 10.000681 34.499882 L 11.999284 34.499882 M 15.000255 34.499882 L 19.000527 34.499882 M 22.999267 34.499882 L 24.000101 34.499882 M 24.999403 34.499882 L 26.000237 34.499882 M 28.000373 34.499882 L 35.000083 34.499882 M 35.999385 34.499882 L 37.00022 34.499882 M 37.999521 34.499882 L 39.000356 34.499882 M 2.000136 35.500716 L 2.999438 35.500716 M 4.000272 35.500716 L 6.99971 35.500716 M 8.000545 35.500716 L 8.999846 35.500716 M 10.000681 35.500716 L 10.999982 35.500716 M 15.999556 35.500716 L 17.999693 35.500716 M 19.999829 35.500716 L 21.000663 35.500716 M 21.999965 35.500716 L 22.999267 35.500716 M 24.000101 35.500716 L 24.999403 35.500716 M 28.000373 35.500716 L 30.999811 35.500716 M 32.000646 35.500716 L 32.999947 35.500716 M 33.999249 35.500716 L 37.00022 35.500716 M 37.999521 35.500716 L 39.000356 35.500716 M 2.000136 36.500018 L 2.999438 36.500018 M 4.000272 36.500018 L 6.99971 36.500018 M 8.000545 36.500018 L 8.999846 36.500018 M 10.000681 36.500018 L 11.999284 36.500018 M 13.000119 36.500018 L 13.99942 36.500018 M 15.000255 36.500018 L 15.999556 36.500018 M 17.000391 36.500018 L 19.000527 36.500018 M 21.000663 36.500018 L 21.999965 36.500018 M 22.999267 36.500018 L 24.999403 36.500018 M 30.000509 36.500018 L 30.999811 36.500018 M 35.000083 36.500018 L 35.999385 36.500018 M 37.00022 36.500018 L 39.000356 36.500018 M 2.000136 37.49932 L 2.999438 37.49932 M 8.000545 37.49932 L 8.999846 37.49932 M 11.999284 37.49932 L 15.000255 37.49932 M 15.999556 37.49932 L 17.999693 37.49932 M 21.000663 37.49932 L 26.000237 37.49932 M 28.000373 37.49932 L 30.999811 37.49932 M 33.999249 37.49932 L 35.999385 37.49932 M 37.999521 37.49932 L 39.000356 37.49932 M 2.000136 38.500154 L 8.999846 38.500154 M 10.000681 38.500154 L 15.000255 38.500154 M 15.999556 38.500154 L 19.999829 38.500154 M 21.000663 38.500154 L 21.999965 38.500154 M 24.000101 38.500154 L 24.999403 38.500154 M 26.000237 38.500154 L 28.999675 38.500154 M 30.999811 38.500154 L 32.999947 38.500154 M 33.999249 38.500154 L 35.000083 38.500154 M 35.999385 38.500154 L 39.000356 38.500154 " stroke="#000000" stroke-width="1" stroke-opacity="1" stroke-miterlimit="4"/></g></g></g></svg>