<svg xmlns="http://www.w3.org/2000/svg" xmlns:xlink="http://www.w3.org/1999/xlink" width="140" zoomAndPan="magnify" viewBox="0 0 104.88 104.999996" height="140" preserveAspectRatio="xMidYMid meet" version="1.0"><defs><clipPath id="48fa300cf5"><path d="M 0 0.0585938 L 104.761719 0.0585938 L 104.761719 104.9375 L 0 104.9375 Z M 0 0.0585938 " clip-rule="nonzero"/></clipPath><clipPath id="b80dba08f5"><path d="M 0 0.0585938 L 104.761719 0.0585938 L 104.761719 104.929688 L 0 104.929688 Z M 0 0.0585938 " clip-rule="nonzero"/></clipPath><clipPath id="8d9e4f6d92"><rect x="0" width="105" y="0" height="105"/></clipPath></defs><g clip-path="url(#48fa300cf5)"><path fill="#ffffff" d="M 0 0.0585938 L 104.878906 0.0585938 L 104.878906 104.941406 L 0 104.941406 Z M 0 0.0585938 " fill-opacity="1" fill-rule="nonzero"/><g transform="matrix(1, 0, 0, 1, 0, 0.000000000000007029)"><g clip-path="url(#8d9e4f6d92)"><g clip-path="url(#b80dba08f5)"><path fill="#ffffff" d="M 0 0.0585938 L 104.867188 0.0585938 L 104.867188 104.929688 L 0 104.929688 Z M 0 0.0585938 " fill-opacity="1" fill-rule="nonzero"/></g><path stroke-linecap="butt" transform="matrix(2.557761, 0, 0, 2.557761, -0.000000000000010646, 0.059997)" fill-opacity="1" fill="#ffffff" fill-rule="nonzero" stroke-linejoin="miter" d="M 2.000651 2.499501 L 8.999874 2.499501 M 12.999648 2.499501 L 17.999748 2.499501 M 20.000399 2.499501 L 21.000724 2.499501 M 21.999523 2.499501 L 22.999848 2.499501 M 24.000173 2.499501 L 25.000499 2.499501 M 25.999297 2.499501 L 26.999622 2.499501 M 27.999948 2.499501 L 29.000273 2.499501 M 31.999722 2.499501 L 39.000472 2.499501 M 2.000651 3.499827 L 2.999449 3.499827 M 7.999549 3.499827 L 8.999874 3.499827 M 11.000525 3.499827 L 12.999648 3.499827 M 13.999974 3.499827 L 21.999523 3.499827 M 22.999848 3.499827 L 25.000499 3.499827 M 27.999948 3.499827 L 30.999397 3.499827 M 31.999722 3.499827 L 33.000047 3.499827 M 38.000147 3.499827 L 39.000472 3.499827 M 2.000651 4.500152 L 2.999449 4.500152 M 3.999774 4.500152 L 7.000751 4.500152 M 7.999549 4.500152 L 8.999874 4.500152 M 10.000199 4.500152 L 11.000525 4.500152 M 16.000625 4.500152 L 16.999423 4.500152 M 21.000724 4.500152 L 25.000499 4.500152 M 25.999297 4.500152 L 26.999622 4.500152 M 29.000273 4.500152 L 30.000598 4.500152 M 31.999722 4.500152 L 33.000047 4.500152 M 34.000373 4.500152 L 36.999822 4.500152 M 38.000147 4.500152 L 39.000472 4.500152 M 2.000651 5.500477 L 2.999449 5.500477 M 3.999774 5.500477 L 7.000751 5.500477 M 7.999549 5.500477 L 8.999874 5.500477 M 10.000199 5.500477 L 11.999323 5.500477 M 12.999648 5.500477 L 13.999974 5.500477 M 17.999748 5.500477 L 20.000399 5.500477 M 21.000724 5.500477 L 21.999523 5.500477 M 25.999297 5.500477 L 29.000273 5.500477 M 30.000598 5.500477 L 30.999397 5.500477 M 31.999722 5.500477 L 33.000047 5.500477 M 34.000373 5.500477 L 36.999822 5.500477 M 38.000147 5.500477 L 39.000472 5.500477 M 2.000651 6.499276 L 2.999449 6.499276 M 3.999774 6.499276 L 7.000751 6.499276 M 7.999549 6.499276 L 8.999874 6.499276 M 10.000199 6.499276 L 11.000525 6.499276 M 12.999648 6.499276 L 13.999974 6.499276 M 16.999423 6.499276 L 17.999748 6.499276 M 20.000399 6.499276 L 22.999848 6.499276 M 25.000499 6.499276 L 25.999297 6.499276 M 30.000598 6.499276 L 30.999397 6.499276 M 31.999722 6.499276 L 33.000047 6.499276 M 34.000373 6.499276 L 36.999822 6.499276 M 38.000147 6.499276 L 39.000472 6.499276 M 2.000651 7.499601 L 2.999449 7.499601 M 7.999549 7.499601 L 8.999874 7.499601 M 10.000199 7.499601 L 11.000525 7.499601 M 12.999648 7.499601 L 17.999748 7.499601 M 20.000399 7.499601 L 21.000724 7.499601 M 21.999523 7.499601 L 22.999848 7.499601 M 24.000173 7.499601 L 25.000499 7.499601 M 26.999622 7.499601 L 27.999948 7.499601 M 29.000273 7.499601 L 30.999397 7.499601 M 31.999722 7.499601 L 33.000047 7.499601 M 38.000147 7.499601 L 39.000472 7.499601 M 2.000651 8.499926 L 8.999874 8.499926 M 10.000199 8.499926 L 11.000525 8.499926 M 11.999323 8.499926 L 12.999648 8.499926 M 13.999974 8.499926 L 15.000299 8.499926 M 16.000625 8.499926 L 16.999423 8.499926 M 17.999748 8.499926 L 19.000074 8.499926 M 20.000399 8.499926 L 21.000724 8.499926 M 21.999523 8.499926 L 22.999848 8.499926 M 24.000173 8.499926 L 25.000499 8.499926 M 25.999297 8.499926 L 26.999622 8.499926 M 27.999948 8.499926 L 29.000273 8.499926 M 30.000598 8.499926 L 30.999397 8.499926 M 31.999722 8.499926 L 39.000472 8.499926 M 10.000199 9.500252 L 12.999648 9.500252 M 13.999974 9.500252 L 15.000299 9.500252 M 21.000724 9.500252 L 21.999523 9.500252 M 25.000499 9.500252 L 25.999297 9.500252 M 27.999948 9.500252 L 29.000273 9.500252 M 2.000651 10.500577 L 2.999449 10.500577 M 3.999774 10.500577 L 8.999874 10.500577 M 13.999974 10.500577 L 15.000299 10.500577 M 16.000625 10.500577 L 17.999748 10.500577 M 20.000399 10.500577 L 21.000724 10.500577 M 21.999523 10.500577 L 30.999397 10.500577 M 31.999722 10.500577 L 36.999822 10.500577 M 2.999449 11.499375 L 3.999774 11.499375 M 5.0001 11.499375 L 6.000425 11.499375 M 12.999648 11.499375 L 15.000299 11.499375 M 16.999423 11.499375 L 19.000074 11.499375 M 29.000273 11.499375 L 30.999397 11.499375 M 31.999722 11.499375 L 34.000373 11.499375 M 35.000698 11.499375 L 38.000147 11.499375 M 2.999449 12.499701 L 5.0001 12.499701 M 7.999549 12.499701 L 11.999323 12.499701 M 12.999648 12.499701 L 13.999974 12.499701 M 16.000625 12.499701 L 16.999423 12.499701 M 21.999523 12.499701 L 22.999848 12.499701 M 24.000173 12.499701 L 26.999622 12.499701 M 29.000273 12.499701 L 33.000047 12.499701 M 34.000373 12.499701 L 35.000698 12.499701 M 36.999822 12.499701 L 39.000472 12.499701 M 2.999449 13.500026 L 3.999774 13.500026 M 7.000751 13.500026 L 7.999549 13.500026 M 11.999323 13.500026 L 15.000299 13.500026 M 17.999748 13.500026 L 19.000074 13.500026 M 22.999848 13.500026 L 25.999297 13.500026 M 27.999948 13.500026 L 29.000273 13.500026 M 30.999397 13.500026 L 31.999722 13.500026 M 38.000147 13.500026 L 39.000472 13.500026 M 2.000651 14.500351 L 2.999449 14.500351 M 3.999774 14.500351 L 5.0001 14.500351 M 6.000425 14.500351 L 7.000751 14.500351 M 7.999549 14.500351 L 8.999874 14.500351 M 11.999323 14.500351 L 12.999648 14.500351 M 13.999974 14.500351 L 16.999423 14.500351 M 17.999748 14.500351 L 20.000399 14.500351 M 21.999523 14.500351 L 22.999848 14.500351 M 24.000173 14.500351 L 39.000472 14.500351 M 2.999449 15.500677 L 3.999774 15.500677 M 5.0001 15.500677 L 6.000425 15.500677 M 7.000751 15.500677 L 7.999549 15.500677 M 8.999874 15.500677 L 12.999648 15.500677 M 13.999974 15.500677 L 16.000625 15.500677 M 17.999748 15.500677 L 25.999297 15.500677 M 26.999622 15.500677 L 27.999948 15.500677 M 30.000598 15.500677 L 31.999722 15.500677 M 33.000047 15.500677 L 34.000373 15.500677 M 3.999774 16.499475 L 5.0001 16.499475 M 7.000751 16.499475 L 8.999874 16.499475 M 11.999323 16.499475 L 16.000625 16.499475 M 16.999423 16.499475 L 17.999748 16.499475 M 19.000074 16.499475 L 20.000399 16.499475 M 21.999523 16.499475 L 24.000173 16.499475 M 27.999948 16.499475 L 30.000598 16.499475 M 30.999397 16.499475 L 35.999496 16.499475 M 36.999822 16.499475 L 39.000472 16.499475 M 2.000651 17.4998 L 7.000751 17.4998 M 8.999874 17.4998 L 11.999323 17.4998 M 13.999974 17.4998 L 16.999423 17.4998 M 17.999748 17.4998 L 21.000724 17.4998 M 21.999523 17.4998 L 26.999622 17.4998 M 30.000598 17.4998 L 35.000698 17.4998 M 36.999822 17.4998 L 38.000147 17.4998 M 2.000651 18.500126 L 2.999449 18.500126 M 5.0001 18.500126 L 10.000199 18.500126 M 11.000525 18.500126 L 11.999323 18.500126 M 13.999974 18.500126 L 16.000625 18.500126 M 16.999423 18.500126 L 19.000074 18.500126 M 22.999848 18.500126 L 24.000173 18.500126 M 25.999297 18.500126 L 29.000273 18.500126 M 30.000598 18.500126 L 30.999397 18.500126 M 31.999722 18.500126 L 35.000698 18.500126 M 35.999496 18.500126 L 38.000147 18.500126 M 2.000651 19.500451 L 2.999449 19.500451 M 5.0001 19.500451 L 7.000751 19.500451 M 8.999874 19.500451 L 11.000525 19.500451 M 11.999323 19.500451 L 15.000299 19.500451 M 16.999423 19.500451 L 17.999748 19.500451 M 19.000074 19.500451 L 21.000724 19.500451 M 21.999523 19.500451 L 25.000499 19.500451 M 25.999297 19.500451 L 26.999622 19.500451 M 27.999948 19.500451 L 29.000273 19.500451 M 30.999397 19.500451 L 31.999722 19.500451 M 36.999822 19.500451 L 38.000147 19.500451 M 2.000651 20.499249 L 3.999774 20.499249 M 6.000425 20.499249 L 10.000199 20.499249 M 11.000525 20.499249 L 13.999974 20.499249 M 15.000299 20.499249 L 16.000625 20.499249 M 16.999423 20.499249 L 20.000399 20.499249 M 21.000724 20.499249 L 21.999523 20.499249 M 26.999622 20.499249 L 33.000047 20.499249 M 34.000373 20.499249 L 35.000698 20.499249 M 35.999496 20.499249 L 39.000472 20.499249 M 2.000651 21.499575 L 3.999774 21.499575 M 5.0001 21.499575 L 6.000425 21.499575 M 8.999874 21.499575 L 11.000525 21.499575 M 15.000299 21.499575 L 16.000625 21.499575 M 16.999423 21.499575 L 17.999748 21.499575 M 20.000399 21.499575 L 24.000173 21.499575 M 25.999297 21.499575 L 26.999622 21.499575 M 27.999948 21.499575 L 29.000273 21.499575 M 30.999397 21.499575 L 31.999722 21.499575 M 33.000047 21.499575 L 35.000698 21.499575 M 38.000147 21.499575 L 39.000472 21.499575 M 3.999774 22.4999 L 11.000525 22.4999 M 13.999974 22.4999 L 15.000299 22.4999 M 16.999423 22.4999 L 17.999748 22.4999 M 19.000074 22.4999 L 20.000399 22.4999 M 21.000724 22.4999 L 21.999523 22.4999 M 24.000173 22.4999 L 25.000499 22.4999 M 25.999297 22.4999 L 29.000273 22.4999 M 30.999397 22.4999 L 33.000047 22.4999 M 34.000373 22.4999 L 35.000698 22.4999 M 35.999496 22.4999 L 36.999822 22.4999 M 5.0001 23.500226 L 6.000425 23.500226 M 8.999874 23.500226 L 10.000199 23.500226 M 11.999323 23.500226 L 13.999974 23.500226 M 15.000299 23.500226 L 16.999423 23.500226 M 17.999748 23.500226 L 19.000074 23.500226 M 21.000724 23.500226 L 22.999848 23.500226 M 25.000499 23.500226 L 25.999297 23.500226 M 27.999948 23.500226 L 29.000273 23.500226 M 30.000598 23.500226 L 31.999722 23.500226 M 35.000698 23.500226 L 35.999496 23.500226 M 36.999822 23.500226 L 38.000147 23.500226 M 2.000651 24.500551 L 2.999449 24.500551 M 7.000751 24.500551 L 10.000199 24.500551 M 11.000525 24.500551 L 11.999323 24.500551 M 13.999974 24.500551 L 15.000299 24.500551 M 16.000625 24.500551 L 19.000074 24.500551 M 20.000399 24.500551 L 21.000724 24.500551 M 24.000173 24.500551 L 25.000499 24.500551 M 25.999297 24.500551 L 26.999622 24.500551 M 27.999948 24.500551 L 30.999397 24.500551 M 31.999722 24.500551 L 35.999496 24.500551 M 38.000147 24.500551 L 39.000472 24.500551 M 3.999774 25.499349 L 7.999549 25.499349 M 10.000199 25.499349 L 11.000525 25.499349 M 11.999323 25.499349 L 12.999648 25.499349 M 15.000299 25.499349 L 16.000625 25.499349 M 16.999423 25.499349 L 19.000074 25.499349 M 21.000724 25.499349 L 22.999848 25.499349 M 25.000499 25.499349 L 25.999297 25.499349 M 29.000273 25.499349 L 30.000598 25.499349 M 31.999722 25.499349 L 35.000698 25.499349 M 36.999822 25.499349 L 39.000472 25.499349 M 2.000651 26.499675 L 5.0001 26.499675 M 7.000751 26.499675 L 11.999323 26.499675 M 12.999648 26.499675 L 17.999748 26.499675 M 20.000399 26.499675 L 25.999297 26.499675 M 26.999622 26.499675 L 29.000273 26.499675 M 30.999397 26.499675 L 33.000047 26.499675 M 35.999496 26.499675 L 36.999822 26.499675 M 38.000147 26.499675 L 39.000472 26.499675 M 2.000651 27.5 L 2.999449 27.5 M 3.999774 27.5 L 5.0001 27.5 M 11.999323 27.5 L 12.999648 27.5 M 15.000299 27.5 L 19.000074 27.5 M 22.999848 27.5 L 24.000173 27.5 M 25.000499 27.5 L 26.999622 27.5 M 30.000598 27.5 L 30.999397 27.5 M 31.999722 27.5 L 34.000373 27.5 M 35.000698 27.5 L 35.999496 27.5 M 2.000651 28.500325 L 2.999449 28.500325 M 3.999774 28.500325 L 5.0001 28.500325 M 6.000425 28.500325 L 8.999874 28.500325 M 11.000525 28.500325 L 12.999648 28.500325 M 13.999974 28.500325 L 15.000299 28.500325 M 16.000625 28.500325 L 16.999423 28.500325 M 21.999523 28.500325 L 25.000499 28.500325 M 26.999622 28.500325 L 27.999948 28.500325 M 29.000273 28.500325 L 30.000598 28.500325 M 30.999397 28.500325 L 34.000373 28.500325 M 35.999496 28.500325 L 39.000472 28.500325 M 2.000651 29.500651 L 2.999449 29.500651 M 3.999774 29.500651 L 6.000425 29.500651 M 7.000751 29.500651 L 7.999549 29.500651 M 10.000199 29.500651 L 11.999323 29.500651 M 12.999648 29.500651 L 16.999423 29.500651 M 17.999748 29.500651 L 19.000074 29.500651 M 20.000399 29.500651 L 21.000724 29.500651 M 22.999848 29.500651 L 25.000499 29.500651 M 25.999297 29.500651 L 26.999622 29.500651 M 30.999397 29.500651 L 31.999722 29.500651 M 33.000047 29.500651 L 35.000698 29.500651 M 36.999822 29.500651 L 39.000472 29.500651 M 2.000651 30.499449 L 2.999449 30.499449 M 3.999774 30.499449 L 6.000425 30.499449 M 7.000751 30.499449 L 10.000199 30.499449 M 17.999748 30.499449 L 20.000399 30.499449 M 24.000173 30.499449 L 25.000499 30.499449 M 25.999297 30.499449 L 36.999822 30.499449 M 38.000147 30.499449 L 39.000472 30.499449 M 10.000199 31.499774 L 11.999323 31.499774 M 12.999648 31.499774 L 15.000299 31.499774 M 16.000625 31.499774 L 16.999423 31.499774 M 17.999748 31.499774 L 24.000173 31.499774 M 25.000499 31.499774 L 26.999622 31.499774 M 29.000273 31.499774 L 30.999397 31.499774 M 34.000373 31.499774 L 35.999496 31.499774 M 2.000651 32.5001 L 8.999874 32.5001 M 11.999323 32.5001 L 15.000299 32.5001 M 16.000625 32.5001 L 20.000399 32.5001 M 21.999523 32.5001 L 24.000173 32.5001 M 30.000598 32.5001 L 30.999397 32.5001 M 31.999722 32.5001 L 33.000047 32.5001 M 34.000373 32.5001 L 35.000698 32.5001 M 35.999496 32.5001 L 39.000472 32.5001 M 2.000651 33.500425 L 2.999449 33.500425 M 7.999549 33.500425 L 8.999874 33.500425 M 10.000199 33.500425 L 16.999423 33.500425 M 19.000074 33.500425 L 21.000724 33.500425 M 22.999848 33.500425 L 25.000499 33.500425 M 27.999948 33.500425 L 29.000273 33.500425 M 30.000598 33.500425 L 30.999397 33.500425 M 34.000373 33.500425 L 35.999496 33.500425 M 2.000651 34.50075 L 2.999449 34.50075 M 3.999774 34.50075 L 7.000751 34.50075 M 7.999549 34.50075 L 8.999874 34.50075 M 10.000199 34.50075 L 11.000525 34.50075 M 13.999974 34.50075 L 19.000074 34.50075 M 22.999848 34.50075 L 24.000173 34.50075 M 25.000499 34.50075 L 25.999297 34.50075 M 27.999948 34.50075 L 35.000698 34.50075 M 35.999496 34.50075 L 36.999822 34.50075 M 38.000147 34.50075 L 39.000472 34.50075 M 2.000651 35.499549 L 2.999449 35.499549 M 3.999774 35.499549 L 7.000751 35.499549 M 7.999549 35.499549 L 8.999874 35.499549 M 10.000199 35.499549 L 11.000525 35.499549 M 13.999974 35.499549 L 15.000299 35.499549 M 16.999423 35.499549 L 17.999748 35.499549 M 20.000399 35.499549 L 21.000724 35.499549 M 21.999523 35.499549 L 22.999848 35.499549 M 24.000173 35.499549 L 25.000499 35.499549 M 29.000273 35.499549 L 30.999397 35.499549 M 31.999722 35.499549 L 33.000047 35.499549 M 34.000373 35.499549 L 36.999822 35.499549 M 38.000147 35.499549 L 39.000472 35.499549 M 2.000651 36.499874 L 2.999449 36.499874 M 3.999774 36.499874 L 7.000751 36.499874 M 7.999549 36.499874 L 8.999874 36.499874 M 10.000199 36.499874 L 11.999323 36.499874 M 12.999648 36.499874 L 13.999974 36.499874 M 15.000299 36.499874 L 16.000625 36.499874 M 16.999423 36.499874 L 19.000074 36.499874 M 21.000724 36.499874 L 21.999523 36.499874 M 22.999848 36.499874 L 25.000499 36.499874 M 25.999297 36.499874 L 26.999622 36.499874 M 30.000598 36.499874 L 30.999397 36.499874 M 35.000698 36.499874 L 35.999496 36.499874 M 36.999822 36.499874 L 39.000472 36.499874 M 2.000651 37.500199 L 2.999449 37.500199 M 7.999549 37.500199 L 8.999874 37.500199 M 11.999323 37.500199 L 12.999648 37.500199 M 13.999974 37.500199 L 15.000299 37.500199 M 16.000625 37.500199 L 17.999748 37.500199 M 21.000724 37.500199 L 25.000499 37.500199 M 25.999297 37.500199 L 26.999622 37.500199 M 27.999948 37.500199 L 29.000273 37.500199 M 30.000598 37.500199 L 31.999722 37.500199 M 34.000373 37.500199 L 35.999496 37.500199 M 38.000147 37.500199 L 39.000472 37.500199 M 2.000651 38.500525 L 8.999874 38.500525 M 10.000199 38.500525 L 15.000299 38.500525 M 16.000625 38.500525 L 20.000399 38.500525 M 21.000724 38.500525 L 21.999523 38.500525 M 24.000173 38.500525 L 30.000598 38.500525 M 34.000373 38.500525 L 35.000698 38.500525 M 35.999496 38.500525 L 39.000472 38.500525 " stroke="#000000" stroke-width="1" stroke-opacity="1" stroke-miterlimit="4"/></g></g></g></svg>