<svg xmlns="http://www.w3.org/2000/svg" xmlns:xlink="http://www.w3.org/1999/xlink" width="140" zoomAndPan="magnify" viewBox="0 0 104.88 104.999996" height="140" preserveAspectRatio="xMidYMid meet" version="1.0"><defs><clipPath id="64dd540b59"><path d="M 0 0.0585938 L 104.761719 0.0585938 L 104.761719 104.9375 L 0 104.9375 Z M 0 0.0585938 " clip-rule="nonzero"/></clipPath><clipPath id="50852fddc3"><path d="M 0 0.0585938 L 104.496094 0.0585938 L 104.496094 104.554688 L 0 104.554688 Z M 0 0.0585938 " clip-rule="nonzero"/></clipPath><clipPath id="713f36c486"><rect x="0" width="105" y="0" height="105"/></clipPath></defs><g clip-path="url(#64dd540b59)"><path fill="#ffffff" d="M 0 0.0585938 L 104.878906 0.0585938 L 104.878906 104.941406 L 0 104.941406 Z M 0 0.0585938 " fill-opacity="1" fill-rule="nonzero"/><g transform="matrix(1, 0, 0, 1, 0, 0.000000000000007029)"><g clip-path="url(#713f36c486)"><g clip-path="url(#50852fddc3)"><path fill="#ffffff" d="M 0 0.0585938 L 104.496094 0.0585938 L 104.496094 104.554688 L 0 104.554688 Z M 0 0.0585938 " fill-opacity="1" fill-rule="nonzero"/></g><path stroke-linecap="butt" transform="matrix(2.548655, 0, 0, 2.548655, -0.000000000000010646, 0.059997)" fill-opacity="1" fill="#ffffff" fill-rule="nonzero" stroke-linejoin="miter" d="M 2.000136 2.499236 L 8.999846 2.499236 M 10.999982 2.499236 L 11.999284 2.499236 M 13.000119 2.499236 L 15.999556 2.499236 M 17.000391 2.499236 L 19.000527 2.499236 M 19.999829 2.499236 L 21.000663 2.499236 M 22.999267 2.499236 L 26.000237 2.499236 M 32.000646 2.499236 L 39.000356 2.499236 M 2.000136 3.500071 L 2.999438 3.500071 M 8.000545 3.500071 L 8.999846 3.500071 M 10.000681 3.500071 L 10.999982 3.500071 M 13.000119 3.500071 L 15.000255 3.500071 M 17.000391 3.500071 L 19.000527 3.500071 M 22.999267 3.500071 L 26.000237 3.500071 M 26.999539 3.500071 L 30.999811 3.500071 M 32.000646 3.500071 L 32.999947 3.500071 M 37.999521 3.500071 L 39.000356 3.500071 M 2.000136 4.499373 L 2.999438 4.499373 M 4.000272 4.499373 L 6.99971 4.499373 M 8.000545 4.499373 L 8.999846 4.499373 M 11.999284 4.499373 L 13.99942 4.499373 M 17.999693 4.499373 L 19.000527 4.499373 M 21.000663 4.499373 L 21.999965 4.499373 M 26.000237 4.499373 L 26.999539 4.499373 M 28.000373 4.499373 L 30.000509 4.499373 M 32.000646 4.499373 L 32.999947 4.499373 M 33.999249 4.499373 L 37.00022 4.499373 M 37.999521 4.499373 L 39.000356 4.499373 M 2.000136 5.500207 L 2.999438 5.500207 M 4.000272 5.500207 L 6.99971 5.500207 M 8.000545 5.500207 L 8.999846 5.500207 M 10.999982 5.500207 L 11.999284 5.500207 M 13.99942 5.500207 L 17.000391 5.500207 M 19.999829 5.500207 L 21.000663 5.500207 M 28.000373 5.500207 L 28.999675 5.500207 M 30.000509 5.500207 L 30.999811 5.500207 M 32.000646 5.500207 L 32.999947 5.500207 M 33.999249 5.500207 L 37.00022 5.500207 M 37.999521 5.500207 L 39.000356 5.500207 M 2.000136 6.499509 L 2.999438 6.499509 M 4.000272 6.499509 L 6.99971 6.499509 M 8.000545 6.499509 L 8.999846 6.499509 M 10.000681 6.499509 L 11.999284 6.499509 M 15.000255 6.499509 L 15.999556 6.499509 M 17.000391 6.499509 L 19.000527 6.499509 M 19.999829 6.499509 L 21.999965 6.499509 M 22.999267 6.499509 L 26.000237 6.499509 M 26.999539 6.499509 L 30.000509 6.499509 M 32.000646 6.499509 L 32.999947 6.499509 M 33.999249 6.499509 L 37.00022 6.499509 M 37.999521 6.499509 L 39.000356 6.499509 M 2.000136 7.500343 L 2.999438 7.500343 M 8.000545 7.500343 L 8.999846 7.500343 M 13.000119 7.500343 L 13.99942 7.500343 M 15.000255 7.500343 L 17.000391 7.500343 M 17.999693 7.500343 L 19.999829 7.500343 M 21.000663 7.500343 L 28.000373 7.500343 M 28.999675 7.500343 L 30.999811 7.500343 M 32.000646 7.500343 L 32.999947 7.500343 M 37.999521 7.500343 L 39.000356 7.500343 M 2.000136 8.499645 L 8.999846 8.499645 M 10.000681 8.499645 L 10.999982 8.499645 M 11.999284 8.499645 L 13.000119 8.499645 M 13.99942 8.499645 L 15.000255 8.499645 M 15.999556 8.499645 L 17.000391 8.499645 M 17.999693 8.499645 L 19.000527 8.499645 M 19.999829 8.499645 L 21.000663 8.499645 M 21.999965 8.499645 L 22.999267 8.499645 M 24.000101 8.499645 L 24.999403 8.499645 M 26.000237 8.499645 L 26.999539 8.499645 M 28.000373 8.499645 L 28.999675 8.499645 M 30.000509 8.499645 L 30.999811 8.499645 M 32.000646 8.499645 L 39.000356 8.499645 M 10.999982 9.500479 L 13.99942 9.500479 M 17.999693 9.500479 L 21.000663 9.500479 M 22.999267 9.500479 L 24.000101 9.500479 M 26.000237 9.500479 L 28.000373 9.500479 M 2.000136 10.499781 L 2.999438 10.499781 M 4.000272 10.499781 L 4.999574 10.499781 M 6.000408 10.499781 L 6.99971 10.499781 M 8.000545 10.499781 L 8.999846 10.499781 M 10.999982 10.499781 L 13.000119 10.499781 M 15.000255 10.499781 L 15.999556 10.499781 M 17.999693 10.499781 L 19.000527 10.499781 M 19.999829 10.499781 L 21.000663 10.499781 M 22.999267 10.499781 L 24.000101 10.499781 M 24.999403 10.499781 L 26.000237 10.499781 M 26.999539 10.499781 L 28.000373 10.499781 M 30.000509 10.499781 L 30.999811 10.499781 M 33.999249 10.499781 L 35.000083 10.499781 M 37.00022 10.499781 L 37.999521 10.499781 M 2.000136 11.500615 L 6.99971 11.500615 M 10.999982 11.500615 L 13.99942 11.500615 M 17.000391 11.500615 L 21.999965 11.500615 M 24.000101 11.500615 L 32.999947 11.500615 M 35.999385 11.500615 L 37.00022 11.500615 M 37.999521 11.500615 L 39.000356 11.500615 M 2.000136 12.499917 L 2.999438 12.499917 M 4.999574 12.499917 L 6.000408 12.499917 M 8.000545 12.499917 L 8.999846 12.499917 M 10.000681 12.499917 L 10.999982 12.499917 M 13.000119 12.499917 L 13.99942 12.499917 M 15.000255 12.499917 L 19.000527 12.499917 M 22.999267 12.499917 L 24.000101 12.499917 M 28.000373 12.499917 L 28.999675 12.499917 M 30.999811 12.499917 L 33.999249 12.499917 M 35.000083 12.499917 L 39.000356 12.499917 M 2.999438 13.500752 L 4.000272 13.500752 M 4.999574 13.500752 L 8.000545 13.500752 M 11.999284 13.500752 L 13.000119 13.500752 M 13.99942 13.500752 L 15.000255 13.500752 M 17.999693 13.500752 L 21.999965 13.500752 M 22.999267 13.500752 L 26.000237 13.500752 M 26.999539 13.500752 L 30.000509 13.500752 M 32.000646 13.500752 L 33.999249 13.500752 M 37.00022 13.500752 L 37.999521 13.500752 M 2.999438 14.500053 L 6.000408 14.500053 M 8.000545 14.500053 L 8.999846 14.500053 M 10.999982 14.500053 L 19.999829 14.500053 M 22.999267 14.500053 L 24.000101 14.500053 M 24.999403 14.500053 L 28.000373 14.500053 M 28.999675 14.500053 L 30.000509 14.500053 M 30.999811 14.500053 L 33.999249 14.500053 M 37.00022 14.500053 L 39.000356 14.500053 M 4.000272 15.499355 L 4.999574 15.499355 M 6.99971 15.499355 L 8.000545 15.499355 M 10.999982 15.499355 L 11.999284 15.499355 M 15.999556 15.499355 L 17.000391 15.499355 M 17.999693 15.499355 L 19.000527 15.499355 M 21.999965 15.499355 L 24.999403 15.499355 M 26.000237 15.499355 L 28.000373 15.499355 M 30.000509 15.499355 L 30.999811 15.499355 M 32.000646 15.499355 L 32.999947 15.499355 M 37.00022 15.499355 L 39.000356 15.499355 M 2.999438 16.500189 L 6.000408 16.500189 M 8.000545 16.500189 L 8.999846 16.500189 M 13.000119 16.500189 L 13.99942 16.500189 M 15.000255 16.500189 L 17.000391 16.500189 M 17.999693 16.500189 L 19.999829 16.500189 M 22.999267 16.500189 L 24.999403 16.500189 M 28.000373 16.500189 L 28.999675 16.500189 M 30.000509 16.500189 L 30.999811 16.500189 M 32.999947 16.500189 L 33.999249 16.500189 M 35.999385 16.500189 L 39.000356 16.500189 M 2.000136 17.499491 L 6.000408 17.499491 M 8.999846 17.499491 L 10.000681 17.499491 M 10.999982 17.499491 L 13.000119 17.499491 M 13.99942 17.499491 L 15.000255 17.499491 M 15.999556 17.499491 L 17.000391 17.499491 M 17.999693 17.499491 L 19.000527 17.499491 M 21.000663 17.499491 L 24.000101 17.499491 M 26.999539 17.499491 L 28.000373 17.499491 M 30.000509 17.499491 L 32.000646 17.499491 M 33.999249 17.499491 L 35.000083 17.499491 M 4.000272 18.500326 L 6.000408 18.500326 M 8.000545 18.500326 L 13.99942 18.500326 M 15.000255 18.500326 L 17.999693 18.500326 M 21.999965 18.500326 L 22.999267 18.500326 M 24.000101 18.500326 L 24.999403 18.500326 M 26.999539 18.500326 L 28.000373 18.500326 M 28.999675 18.500326 L 30.000509 18.500326 M 32.000646 18.500326 L 33.999249 18.500326 M 35.000083 18.500326 L 35.999385 18.500326 M 37.999521 18.500326 L 39.000356 18.500326 M 2.000136 19.499627 L 2.999438 19.499627 M 6.000408 19.499627 L 8.000545 19.499627 M 10.000681 19.499627 L 11.999284 19.499627 M 13.99942 19.499627 L 17.999693 19.499627 M 21.000663 19.499627 L 24.000101 19.499627 M 24.999403 19.499627 L 28.999675 19.499627 M 30.000509 19.499627 L 30.999811 19.499627 M 32.000646 19.499627 L 32.999947 19.499627 M 35.000083 19.499627 L 35.999385 19.499627 M 37.999521 19.499627 L 39.000356 19.499627 M 2.000136 20.500462 L 4.000272 20.500462 M 8.000545 20.500462 L 8.999846 20.500462 M 10.999982 20.500462 L 13.000119 20.500462 M 13.99942 20.500462 L 17.000391 20.500462 M 19.000527 20.500462 L 19.999829 20.500462 M 21.000663 20.500462 L 24.999403 20.500462 M 26.999539 20.500462 L 28.000373 20.500462 M 30.999811 20.500462 L 33.999249 20.500462 M 35.000083 20.500462 L 39.000356 20.500462 M 2.000136 21.499763 L 2.999438 21.499763 M 4.999574 21.499763 L 6.000408 21.499763 M 6.99971 21.499763 L 8.000545 21.499763 M 10.000681 21.499763 L 11.999284 21.499763 M 13.000119 21.499763 L 15.000255 21.499763 M 17.000391 21.499763 L 17.999693 21.499763 M 19.000527 21.499763 L 19.999829 21.499763 M 21.999965 21.499763 L 24.000101 21.499763 M 24.999403 21.499763 L 26.000237 21.499763 M 26.999539 21.499763 L 30.999811 21.499763 M 32.000646 21.499763 L 32.999947 21.499763 M 37.00022 21.499763 L 37.999521 21.499763 M 4.999574 22.500598 L 6.000408 22.500598 M 6.99971 22.500598 L 8.999846 22.500598 M 11.999284 22.500598 L 13.000119 22.500598 M 13.99942 22.500598 L 15.000255 22.500598 M 15.999556 22.500598 L 17.000391 22.500598 M 17.999693 22.500598 L 19.999829 22.500598 M 21.000663 22.500598 L 24.000101 22.500598 M 26.000237 22.500598 L 28.000373 22.500598 M 30.000509 22.500598 L 32.999947 22.500598 M 35.000083 22.500598 L 35.999385 22.500598 M 4.000272 23.4999 L 6.000408 23.4999 M 8.999846 23.4999 L 10.999982 23.4999 M 11.999284 23.4999 L 13.000119 23.4999 M 13.99942 23.4999 L 17.000391 23.4999 M 17.999693 23.4999 L 21.000663 23.4999 M 21.999965 23.4999 L 22.999267 23.4999 M 26.000237 23.4999 L 26.999539 23.4999 M 28.000373 23.4999 L 28.999675 23.4999 M 30.000509 23.4999 L 30.999811 23.4999 M 32.000646 23.4999 L 33.999249 23.4999 M 35.000083 23.4999 L 35.999385 23.4999 M 37.00022 23.4999 L 39.000356 23.4999 M 4.999574 24.500734 L 6.000408 24.500734 M 8.000545 24.500734 L 10.000681 24.500734 M 10.999982 24.500734 L 11.999284 24.500734 M 15.000255 24.500734 L 15.999556 24.500734 M 19.999829 24.500734 L 21.000663 24.500734 M 21.999965 24.500734 L 24.000101 24.500734 M 26.000237 24.500734 L 28.999675 24.500734 M 30.999811 24.500734 L 32.000646 24.500734 M 32.999947 24.500734 L 33.999249 24.500734 M 35.999385 24.500734 L 39.000356 24.500734 M 2.999438 25.500036 L 6.99971 25.500036 M 8.999846 25.500036 L 10.999982 25.500036 M 15.999556 25.500036 L 21.000663 25.500036 M 21.999965 25.500036 L 22.999267 25.500036 M 26.000237 25.500036 L 28.000373 25.500036 M 28.999675 25.500036 L 30.000509 25.500036 M 33.999249 25.500036 L 35.000083 25.500036 M 37.00022 25.500036 L 39.000356 25.500036 M 2.000136 26.499337 L 2.999438 26.499337 M 4.999574 26.499337 L 8.999846 26.499337 M 13.000119 26.499337 L 15.000255 26.499337 M 17.999693 26.499337 L 19.000527 26.499337 M 19.999829 26.499337 L 21.999965 26.499337 M 24.999403 26.499337 L 26.000237 26.499337 M 28.999675 26.499337 L 32.999947 26.499337 M 35.000083 26.499337 L 35.999385 26.499337 M 37.00022 26.499337 L 39.000356 26.499337 M 4.999574 27.500172 L 8.000545 27.500172 M 10.000681 27.500172 L 10.999982 27.500172 M 13.99942 27.500172 L 21.999965 27.500172 M 22.999267 27.500172 L 24.000101 27.500172 M 26.999539 27.500172 L 32.000646 27.500172 M 35.000083 27.500172 L 39.000356 27.500172 M 2.000136 28.499474 L 2.999438 28.499474 M 4.000272 28.499474 L 4.999574 28.499474 M 6.000408 28.499474 L 8.999846 28.499474 M 11.999284 28.499474 L 13.000119 28.499474 M 17.000391 28.499474 L 19.000527 28.499474 M 26.000237 28.499474 L 28.999675 28.499474 M 30.000509 28.499474 L 35.000083 28.499474 M 37.00022 28.499474 L 39.000356 28.499474 M 2.999438 29.500308 L 4.999574 29.500308 M 6.000408 29.500308 L 8.000545 29.500308 M 8.999846 29.500308 L 11.999284 29.500308 M 13.99942 29.500308 L 15.999556 29.500308 M 17.999693 29.500308 L 19.999829 29.500308 M 21.000663 29.500308 L 21.999965 29.500308 M 22.999267 29.500308 L 26.000237 29.500308 M 26.999539 29.500308 L 28.000373 29.500308 M 30.000509 29.500308 L 30.999811 29.500308 M 32.000646 29.500308 L 35.999385 29.500308 M 2.000136 30.49961 L 2.999438 30.49961 M 4.999574 30.49961 L 6.99971 30.49961 M 8.000545 30.49961 L 11.999284 30.49961 M 13.000119 30.49961 L 13.99942 30.49961 M 15.999556 30.49961 L 17.999693 30.49961 M 19.000527 30.49961 L 19.999829 30.49961 M 21.999965 30.49961 L 24.000101 30.49961 M 26.000237 30.49961 L 28.000373 30.49961 M 28.999675 30.49961 L 35.999385 30.49961 M 37.00022 30.49961 L 39.000356 30.49961 M 10.000681 31.500444 L 10.999982 31.500444 M 13.000119 31.500444 L 13.99942 31.500444 M 15.999556 31.500444 L 17.000391 31.500444 M 17.999693 31.500444 L 19.000527 31.500444 M 21.999965 31.500444 L 24.000101 31.500444 M 28.999675 31.500444 L 30.999811 31.500444 M 33.999249 31.500444 L 35.999385 31.500444 M 37.00022 31.500444 L 39.000356 31.500444 M 2.000136 32.499746 L 8.999846 32.499746 M 13.000119 32.499746 L 15.000255 32.499746 M 15.999556 32.499746 L 17.000391 32.499746 M 19.000527 32.499746 L 19.999829 32.499746 M 24.000101 32.499746 L 24.999403 32.499746 M 26.999539 32.499746 L 30.999811 32.499746 M 32.000646 32.499746 L 32.999947 32.499746 M 33.999249 32.499746 L 35.999385 32.499746 M 37.00022 32.499746 L 39.000356 32.499746 M 2.000136 33.50058 L 2.999438 33.50058 M 8.000545 33.50058 L 8.999846 33.50058 M 10.999982 33.50058 L 13.000119 33.50058 M 13.99942 33.50058 L 15.999556 33.50058 M 21.000663 33.50058 L 21.999965 33.50058 M 22.999267 33.50058 L 28.000373 33.50058 M 30.000509 33.50058 L 30.999811 33.50058 M 33.999249 33.50058 L 35.999385 33.50058 M 2.000136 34.499882 L 2.999438 34.499882 M 4.000272 34.499882 L 6.99971 34.499882 M 8.000545 34.499882 L 8.999846 34.499882 M 10.000681 34.499882 L 11.999284 34.499882 M 15.000255 34.499882 L 17.000391 34.499882 M 21.999965 34.499882 L 22.999267 34.499882 M 24.000101 34.499882 L 26.000237 34.499882 M 30.000509 34.499882 L 35.999385 34.499882 M 2.000136 35.500716 L 2.999438 35.500716 M 4.000272 35.500716 L 6.99971 35.500716 M 8.000545 35.500716 L 8.999846 35.500716 M 11.999284 35.500716 L 13.000119 35.500716 M 15.000255 35.500716 L 15.999556 35.500716 M 17.000391 35.500716 L 17.999693 35.500716 M 19.000527 35.500716 L 19.999829 35.500716 M 21.000663 35.500716 L 22.999267 35.500716 M 24.000101 35.500716 L 24.999403 35.500716 M 26.000237 35.500716 L 28.000373 35.500716 M 28.999675 35.500716 L 32.000646 35.500716 M 32.999947 35.500716 L 35.000083 35.500716 M 35.999385 35.500716 L 37.999521 35.500716 M 2.000136 36.500018 L 2.999438 36.500018 M 4.000272 36.500018 L 6.99971 36.500018 M 8.000545 36.500018 L 8.999846 36.500018 M 10.000681 36.500018 L 17.000391 36.500018 M 21.000663 36.500018 L 22.999267 36.500018 M 28.000373 36.500018 L 30.000509 36.500018 M 33.999249 36.500018 L 35.999385 36.500018 M 37.00022 36.500018 L 39.000356 36.500018 M 2.000136 37.49932 L 2.999438 37.49932 M 8.000545 37.49932 L 8.999846 37.49932 M 11.999284 37.49932 L 13.99942 37.49932 M 15.000255 37.49932 L 15.999556 37.49932 M 17.000391 37.49932 L 17.999693 37.49932 M 19.000527 37.49932 L 21.000663 37.49932 M 21.999965 37.49932 L 24.999403 37.49932 M 26.000237 37.49932 L 30.999811 37.49932 M 32.000646 37.49932 L 35.000083 37.49932 M 37.00022 37.49932 L 37.999521 37.49932 M 2.000136 38.500154 L 8.999846 38.500154 M 10.000681 38.500154 L 10.999982 38.500154 M 13.99942 38.500154 L 17.000391 38.500154 M 19.000527 38.500154 L 19.999829 38.500154 M 21.000663 38.500154 L 24.000101 38.500154 M 26.000237 38.500154 L 28.000373 38.500154 M 28.999675 38.500154 L 30.999811 38.500154 M 37.00022 38.500154 L 39.000356 38.500154 " stroke="#000000" stroke-width="1" stroke-opacity="1" stroke-miterlimit="4"/></g></g></g></svg>